<?xml version="1.0" encoding="utf-8" standalone="no"?>
<!DOCTYPE svg PUBLIC "-//W3C//DTD SVG 1.1//EN"
  "http://www.w3.org/Graphics/SVG/1.1/DTD/svg11.dtd">
<svg xmlns:xlink="http://www.w3.org/1999/xlink" width="720pt" height="432pt" viewBox="0 0 720 432" xmlns="http://www.w3.org/2000/svg" version="1.1">
 <metadata>
  <rdf:RDF xmlns:dc="http://purl.org/dc/elements/1.1/" xmlns:cc="http://creativecommons.org/ns#" xmlns:rdf="http://www.w3.org/1999/02/22-rdf-syntax-ns#">
   <cc:Work>
    <dc:type rdf:resource="http://purl.org/dc/dcmitype/StillImage"/>
    <dc:date>2024-06-10T12:42:42.680688</dc:date>
    <dc:format>image/svg+xml</dc:format>
    <dc:creator>
     <cc:Agent>
      <dc:title>Matplotlib v3.8.4, https://matplotlib.org/</dc:title>
     </cc:Agent>
    </dc:creator>
   </cc:Work>
  </rdf:RDF>
 </metadata>
 <defs>
  <style type="text/css">*{stroke-linejoin: round; stroke-linecap: butt}</style>
 </defs>
 <g id="figure_1">
  <g id="patch_1">
   <path d="M 0 432 
L 720 432 
L 720 0 
L 0 0 
z
" style="fill: #ffffff"/>
  </g>
  <g id="axes_1">
   <g id="patch_2">
    <path d="M 90 384.48 
L 648 384.48 
L 648 51.84 
L 90 51.84 
z
" style="fill: #ffffff"/>
   </g>
   <g id="PolyCollection_1">
    <defs>
     <path id="m7fe02223c8" d="M 305.590909 -62.64 
L 305.590909 -246.054963 
L 305.717854 -246.42216 
L 305.844799 -246.789354 
L 305.971744 -247.156541 
L 306.09869 -247.52372 
L 306.225635 -247.890888 
L 306.35258 -248.25804 
L 306.479525 -248.625174 
L 306.60647 -248.992288 
L 306.733415 -249.359378 
L 306.86036 -249.726442 
L 306.987305 -250.093475 
L 307.114251 -250.460476 
L 307.241196 -250.827441 
L 307.368141 -251.194368 
L 307.495086 -251.561252 
L 307.622031 -251.928092 
L 307.748976 -252.294884 
L 307.875921 -252.661625 
L 308.002867 -253.028313 
L 308.129812 -253.394943 
L 308.256757 -253.761513 
L 308.383702 -254.12802 
L 308.510647 -254.494462 
L 308.637592 -254.860834 
L 308.764537 -255.227133 
L 308.891482 -255.593358 
L 309.018428 -255.959504 
L 309.145373 -256.325568 
L 309.272318 -256.691548 
L 309.399263 -257.05744 
L 309.526208 -257.423241 
L 309.653153 -257.788949 
L 309.780098 -258.154559 
L 309.907043 -258.52007 
L 310.033989 -258.885477 
L 310.160934 -259.250777 
L 310.287879 -259.615969 
L 310.414824 -259.981047 
L 310.541769 -260.34601 
L 310.668714 -260.710854 
L 310.795659 -261.075576 
L 310.922604 -261.440173 
L 311.04955 -261.804641 
L 311.176495 -262.168978 
L 311.30344 -262.53318 
L 311.430385 -262.897244 
L 311.55733 -263.261167 
L 311.684275 -263.624946 
L 311.81122 -263.988578 
L 311.938165 -264.352059 
L 312.065111 -264.715386 
L 312.192056 -265.078557 
L 312.319001 -265.441567 
L 312.445946 -265.804414 
L 312.572891 -266.167094 
L 312.699836 -266.529605 
L 312.826781 -266.891942 
L 312.953726 -267.254104 
L 313.080672 -267.616086 
L 313.207617 -267.977885 
L 313.334562 -268.339499 
L 313.461507 -268.700924 
L 313.588452 -269.062156 
L 313.715397 -269.423192 
L 313.842342 -269.78403 
L 313.969287 -270.144666 
L 314.096233 -270.505097 
L 314.223178 -270.865319 
L 314.350123 -271.225329 
L 314.477068 -271.585125 
L 314.604013 -271.944702 
L 314.730958 -272.304057 
L 314.857903 -272.663188 
L 314.984848 -273.022091 
L 315.111794 -273.380762 
L 315.238739 -273.739199 
L 315.365684 -274.097397 
L 315.492629 -274.455355 
L 315.619574 -274.813068 
L 315.746519 -275.170534 
L 315.873464 -275.527748 
L 316.00041 -275.884709 
L 316.127355 -276.241411 
L 316.2543 -276.597853 
L 316.381245 -276.954031 
L 316.50819 -277.309941 
L 316.635135 -277.66558 
L 316.76208 -278.020945 
L 316.889025 -278.376033 
L 317.015971 -278.73084 
L 317.142916 -279.085364 
L 317.269861 -279.4396 
L 317.396806 -279.793545 
L 317.523751 -280.147196 
L 317.650696 -280.50055 
L 317.777641 -280.853604 
L 317.904586 -281.206354 
L 318.031532 -281.558796 
L 318.158477 -281.910928 
L 318.285422 -282.262746 
L 318.412367 -282.614247 
L 318.539312 -282.965428 
L 318.666257 -283.316285 
L 318.793202 -283.666814 
L 318.920147 -284.017013 
L 319.047093 -284.366878 
L 319.174038 -284.716406 
L 319.300983 -285.065594 
L 319.427928 -285.414437 
L 319.554873 -285.762934 
L 319.681818 -286.11108 
L 319.808763 -286.458872 
L 319.935708 -286.806307 
L 320.062654 -287.153382 
L 320.189599 -287.500092 
L 320.316544 -287.846436 
L 320.443489 -288.192408 
L 320.570434 -288.538007 
L 320.697379 -288.883229 
L 320.824324 -289.22807 
L 320.951269 -289.572527 
L 321.078215 -289.916597 
L 321.20516 -290.260276 
L 321.332105 -290.603561 
L 321.45905 -290.946449 
L 321.585995 -291.288936 
L 321.71294 -291.63102 
L 321.839885 -291.972695 
L 321.96683 -292.31396 
L 322.093776 -292.654811 
L 322.220721 -292.995245 
L 322.347666 -293.335258 
L 322.474611 -293.674846 
L 322.601556 -294.014008 
L 322.728501 -294.352738 
L 322.855446 -294.691034 
L 322.982391 -295.028893 
L 323.109337 -295.366311 
L 323.236282 -295.703284 
L 323.363227 -296.03981 
L 323.490172 -296.375886 
L 323.617117 -296.711507 
L 323.744062 -297.04667 
L 323.871007 -297.381372 
L 323.997952 -297.715611 
L 324.124898 -298.049381 
L 324.251843 -298.382681 
L 324.378788 -298.715506 
L 324.505733 -299.047854 
L 324.632678 -299.37972 
L 324.759623 -299.711102 
L 324.886568 -300.041997 
L 325.013514 -300.372401 
L 325.140459 -300.70231 
L 325.267404 -301.031722 
L 325.394349 -301.360633 
L 325.521294 -301.689039 
L 325.648239 -302.016938 
L 325.775184 -302.344326 
L 325.902129 -302.671199 
L 326.029075 -302.997555 
L 326.15602 -303.32339 
L 326.282965 -303.648701 
L 326.40991 -303.973484 
L 326.536855 -304.297736 
L 326.6638 -304.621454 
L 326.790745 -304.944635 
L 326.91769 -305.267275 
L 327.044636 -305.58937 
L 327.171581 -305.910918 
L 327.298526 -306.231916 
L 327.425471 -306.552359 
L 327.552416 -306.872245 
L 327.679361 -307.19157 
L 327.806306 -307.510332 
L 327.933251 -307.828526 
L 328.060197 -308.146149 
L 328.187142 -308.463199 
L 328.314087 -308.779672 
L 328.441032 -309.095564 
L 328.567977 -309.410873 
L 328.694922 -309.725595 
L 328.821867 -310.039727 
L 328.948812 -310.353265 
L 329.075758 -310.666206 
L 329.202703 -310.978547 
L 329.329648 -311.290286 
L 329.456593 -311.601417 
L 329.583538 -311.911939 
L 329.710483 -312.221848 
L 329.837428 -312.53114 
L 329.964373 -312.839813 
L 330.091319 -313.147864 
L 330.218264 -313.455288 
L 330.345209 -313.762083 
L 330.472154 -314.068246 
L 330.599099 -314.373772 
L 330.726044 -314.67866 
L 330.852989 -314.982906 
L 330.979934 -315.286507 
L 331.10688 -315.589459 
L 331.233825 -315.891759 
L 331.36077 -316.193404 
L 331.487715 -316.494391 
L 331.61466 -316.794717 
L 331.741605 -317.094378 
L 331.86855 -317.393371 
L 331.995495 -317.691694 
L 332.122441 -317.989342 
L 332.249386 -318.286313 
L 332.376331 -318.582604 
L 332.503276 -318.878211 
L 332.630221 -319.173131 
L 332.757166 -319.467362 
L 332.884111 -319.760899 
L 333.011057 -320.05374 
L 333.138002 -320.345882 
L 333.264947 -320.637321 
L 333.391892 -320.928054 
L 333.518837 -321.218079 
L 333.645782 -321.507392 
L 333.772727 -321.79599 
L 333.899672 -322.08387 
L 334.026618 -322.371028 
L 334.153563 -322.657462 
L 334.280508 -322.943169 
L 334.407453 -323.228145 
L 334.534398 -323.512388 
L 334.661343 -323.795894 
L 334.788288 -324.07866 
L 334.915233 -324.360684 
L 335.042179 -324.641962 
L 335.169124 -324.92249 
L 335.296069 -325.202267 
L 335.423014 -325.481288 
L 335.549959 -325.759552 
L 335.676904 -326.037054 
L 335.803849 -326.313793 
L 335.930794 -326.589764 
L 336.05774 -326.864965 
L 336.184685 -327.139393 
L 336.31163 -327.413044 
L 336.438575 -327.685917 
L 336.56552 -327.958007 
L 336.692465 -328.229312 
L 336.81941 -328.499829 
L 336.946355 -328.769555 
L 337.073301 -329.038486 
L 337.200246 -329.306621 
L 337.327191 -329.573956 
L 337.454136 -329.840487 
L 337.581081 -330.106213 
L 337.708026 -330.37113 
L 337.834971 -330.635235 
L 337.961916 -330.898526 
L 338.088862 -331.160999 
L 338.215807 -331.422652 
L 338.342752 -331.683481 
L 338.469697 -331.943484 
L 338.596642 -332.202658 
L 338.723587 -332.461 
L 338.850532 -332.718506 
L 338.977477 -332.975176 
L 339.104423 -333.231004 
L 339.231368 -333.485989 
L 339.358313 -333.740128 
L 339.485258 -333.993418 
L 339.612203 -334.245855 
L 339.739148 -334.497438 
L 339.866093 -334.748164 
L 339.993038 -334.998029 
L 340.119984 -335.24703 
L 340.246929 -335.495166 
L 340.373874 -335.742433 
L 340.500819 -335.988829 
L 340.627764 -336.23435 
L 340.754709 -336.478995 
L 340.881654 -336.722759 
L 341.0086 -336.965641 
L 341.135545 -337.207638 
L 341.26249 -337.448747 
L 341.389435 -337.688965 
L 341.51638 -337.92829 
L 341.643325 -338.166718 
L 341.77027 -338.404248 
L 341.897215 -338.640877 
L 342.024161 -338.876601 
L 342.151106 -339.111419 
L 342.278051 -339.345327 
L 342.404996 -339.578323 
L 342.531941 -339.810404 
L 342.658886 -340.041568 
L 342.785831 -340.271812 
L 342.912776 -340.501134 
L 343.039722 -340.72953 
L 343.166667 -340.956999 
L 343.293612 -341.183537 
L 343.420557 -341.409142 
L 343.547502 -341.633812 
L 343.674447 -341.857544 
L 343.801392 -342.080335 
L 343.928337 -342.302183 
L 344.055283 -342.523086 
L 344.182228 -342.74304 
L 344.309173 -342.962043 
L 344.436118 -343.180094 
L 344.563063 -343.397188 
L 344.690008 -343.613325 
L 344.816953 -343.828501 
L 344.943898 -344.042714 
L 345.070844 -344.255961 
L 345.197789 -344.46824 
L 345.324734 -344.679549 
L 345.451679 -344.889886 
L 345.578624 -345.099246 
L 345.705569 -345.30763 
L 345.832514 -345.515033 
L 345.959459 -345.721454 
L 346.086405 -345.92689 
L 346.21335 -346.131339 
L 346.340295 -346.334798 
L 346.46724 -346.537265 
L 346.594185 -346.738739 
L 346.72113 -346.939216 
L 346.848075 -347.138694 
L 346.97502 -347.33717 
L 347.101966 -347.534644 
L 347.228911 -347.731112 
L 347.355856 -347.926572 
L 347.482801 -348.121021 
L 347.609746 -348.314459 
L 347.736691 -348.506881 
L 347.863636 -348.698287 
L 347.990581 -348.888673 
L 348.117527 -349.078038 
L 348.244472 -349.26638 
L 348.371417 -349.453696 
L 348.498362 -349.639984 
L 348.625307 -349.825242 
L 348.752252 -350.009468 
L 348.879197 -350.192659 
L 349.006143 -350.374814 
L 349.133088 -350.55593 
L 349.260033 -350.736006 
L 349.386978 -350.915039 
L 349.513923 -351.093027 
L 349.640868 -351.269968 
L 349.767813 -351.44586 
L 349.894758 -351.620701 
L 350.021704 -351.794489 
L 350.148649 -351.967222 
L 350.275594 -352.138898 
L 350.402539 -352.309514 
L 350.529484 -352.47907 
L 350.656429 -352.647562 
L 350.783374 -352.814989 
L 350.910319 -352.98135 
L 351.037265 -353.146641 
L 351.16421 -353.310861 
L 351.291155 -353.474009 
L 351.4181 -353.636081 
L 351.545045 -353.797077 
L 351.67199 -353.956995 
L 351.798935 -354.115832 
L 351.92588 -354.273587 
L 352.052826 -354.430258 
L 352.179771 -354.585843 
L 352.306716 -354.74034 
L 352.433661 -354.893747 
L 352.560606 -355.046063 
L 352.687551 -355.197286 
L 352.814496 -355.347414 
L 352.941441 -355.496445 
L 353.068387 -355.644378 
L 353.195332 -355.79121 
L 353.322277 -355.936941 
L 353.449222 -356.081567 
L 353.576167 -356.225089 
L 353.703112 -356.367503 
L 353.830057 -356.508809 
L 353.957002 -356.649004 
L 354.083948 -356.788087 
L 354.210893 -356.926056 
L 354.337838 -357.06291 
L 354.464783 -357.198647 
L 354.591728 -357.333266 
L 354.718673 -357.466764 
L 354.845618 -357.599141 
L 354.972563 -357.730394 
L 355.099509 -357.860523 
L 355.226454 -357.989525 
L 355.353399 -358.117399 
L 355.480344 -358.244144 
L 355.607289 -358.369758 
L 355.734234 -358.494239 
L 355.861179 -358.617587 
L 355.988124 -358.739799 
L 356.11507 -358.860875 
L 356.242015 -358.980812 
L 356.36896 -359.099609 
L 356.495905 -359.217266 
L 356.62285 -359.33378 
L 356.749795 -359.44915 
L 356.87674 -359.563375 
L 357.003686 -359.676454 
L 357.130631 -359.788384 
L 357.257576 -359.899165 
L 357.384521 -360.008796 
L 357.511466 -360.117275 
L 357.638411 -360.224601 
L 357.765356 -360.330772 
L 357.892301 -360.435787 
L 358.019247 -360.539646 
L 358.146192 -360.642346 
L 358.273137 -360.743887 
L 358.400082 -360.844268 
L 358.527027 -360.943487 
L 358.653972 -361.041542 
L 358.780917 -361.138434 
L 358.907862 -361.23416 
L 359.034808 -361.32872 
L 359.161753 -361.422112 
L 359.288698 -361.514335 
L 359.415643 -361.605389 
L 359.542588 -361.695272 
L 359.669533 -361.783982 
L 359.796478 -361.87152 
L 359.923423 -361.957884 
L 360.050369 -362.043073 
L 360.177314 -362.127085 
L 360.304259 -362.209921 
L 360.431204 -362.291578 
L 360.558149 -362.372056 
L 360.685094 -362.451354 
L 360.812039 -362.529472 
L 360.938984 -362.606407 
L 361.06593 -362.68216 
L 361.192875 -362.756728 
L 361.31982 -362.830113 
L 361.446765 -362.902311 
L 361.57371 -362.973323 
L 361.700655 -363.043148 
L 361.8276 -363.111785 
L 361.954545 -363.179233 
L 362.081491 -363.245492 
L 362.208436 -363.31056 
L 362.335381 -363.374436 
L 362.462326 -363.437121 
L 362.589271 -363.498613 
L 362.716216 -363.558911 
L 362.843161 -363.618015 
L 362.970106 -363.675924 
L 363.097052 -363.732638 
L 363.223997 -363.788155 
L 363.350942 -363.842475 
L 363.477887 -363.895597 
L 363.604832 -363.947522 
L 363.731777 -363.998247 
L 363.858722 -364.047773 
L 363.985667 -364.096098 
L 364.112613 -364.143223 
L 364.239558 -364.189147 
L 364.366503 -364.233869 
L 364.493448 -364.277389 
L 364.620393 -364.319706 
L 364.747338 -364.360819 
L 364.874283 -364.400729 
L 365.001229 -364.439434 
L 365.128174 -364.476934 
L 365.255119 -364.513229 
L 365.382064 -364.548319 
L 365.509009 -364.582202 
L 365.635954 -364.614879 
L 365.762899 -364.646349 
L 365.889844 -364.676612 
L 366.01679 -364.705667 
L 366.143735 -364.733514 
L 366.27068 -364.760152 
L 366.397625 -364.785582 
L 366.52457 -364.809803 
L 366.651515 -364.832815 
L 366.77846 -364.854617 
L 366.905405 -364.87521 
L 367.032351 -364.894592 
L 367.159296 -364.912764 
L 367.286241 -364.929726 
L 367.413186 -364.945477 
L 367.540131 -364.960017 
L 367.667076 -364.973346 
L 367.794021 -364.985464 
L 367.920966 -364.99637 
L 368.047912 -365.006065 
L 368.174857 -365.014549 
L 368.301802 -365.02182 
L 368.428747 -365.02788 
L 368.555692 -365.032728 
L 368.682637 -365.036364 
L 368.809582 -365.038788 
L 368.936527 -365.04 
L 369.063473 -365.04 
L 369.190418 -365.038788 
L 369.317363 -365.036364 
L 369.444308 -365.032728 
L 369.571253 -365.02788 
L 369.698198 -365.02182 
L 369.825143 -365.014549 
L 369.952088 -365.006065 
L 370.079034 -364.99637 
L 370.205979 -364.985464 
L 370.332924 -364.973346 
L 370.459869 -364.960017 
L 370.586814 -364.945477 
L 370.713759 -364.929726 
L 370.840704 -364.912764 
L 370.967649 -364.894592 
L 371.094595 -364.87521 
L 371.22154 -364.854617 
L 371.348485 -364.832815 
L 371.47543 -364.809803 
L 371.602375 -364.785582 
L 371.72932 -364.760152 
L 371.856265 -364.733514 
L 371.98321 -364.705667 
L 372.110156 -364.676612 
L 372.237101 -364.646349 
L 372.364046 -364.614879 
L 372.490991 -364.582202 
L 372.617936 -364.548319 
L 372.744881 -364.513229 
L 372.871826 -364.476934 
L 372.998771 -364.439434 
L 373.125717 -364.400729 
L 373.252662 -364.360819 
L 373.379607 -364.319706 
L 373.506552 -364.277389 
L 373.633497 -364.233869 
L 373.760442 -364.189147 
L 373.887387 -364.143223 
L 374.014333 -364.096098 
L 374.141278 -364.047773 
L 374.268223 -363.998247 
L 374.395168 -363.947522 
L 374.522113 -363.895597 
L 374.649058 -363.842475 
L 374.776003 -363.788155 
L 374.902948 -363.732638 
L 375.029894 -363.675924 
L 375.156839 -363.618015 
L 375.283784 -363.558911 
L 375.410729 -363.498613 
L 375.537674 -363.437121 
L 375.664619 -363.374436 
L 375.791564 -363.31056 
L 375.918509 -363.245492 
L 376.045455 -363.179233 
L 376.1724 -363.111785 
L 376.299345 -363.043148 
L 376.42629 -362.973323 
L 376.553235 -362.902311 
L 376.68018 -362.830113 
L 376.807125 -362.756728 
L 376.93407 -362.68216 
L 377.061016 -362.606407 
L 377.187961 -362.529472 
L 377.314906 -362.451354 
L 377.441851 -362.372056 
L 377.568796 -362.291578 
L 377.695741 -362.209921 
L 377.822686 -362.127085 
L 377.949631 -362.043073 
L 378.076577 -361.957884 
L 378.203522 -361.87152 
L 378.330467 -361.783982 
L 378.457412 -361.695272 
L 378.584357 -361.605389 
L 378.711302 -361.514335 
L 378.838247 -361.422112 
L 378.965192 -361.32872 
L 379.092138 -361.23416 
L 379.219083 -361.138434 
L 379.346028 -361.041542 
L 379.472973 -360.943487 
L 379.599918 -360.844268 
L 379.726863 -360.743887 
L 379.853808 -360.642346 
L 379.980753 -360.539646 
L 380.107699 -360.435787 
L 380.234644 -360.330772 
L 380.361589 -360.224601 
L 380.488534 -360.117275 
L 380.615479 -360.008796 
L 380.742424 -359.899165 
L 380.869369 -359.788384 
L 380.996314 -359.676454 
L 381.12326 -359.563375 
L 381.250205 -359.44915 
L 381.37715 -359.33378 
L 381.504095 -359.217266 
L 381.63104 -359.099609 
L 381.757985 -358.980812 
L 381.88493 -358.860875 
L 382.011876 -358.739799 
L 382.138821 -358.617587 
L 382.265766 -358.494239 
L 382.392711 -358.369758 
L 382.519656 -358.244144 
L 382.646601 -358.117399 
L 382.773546 -357.989525 
L 382.900491 -357.860523 
L 383.027437 -357.730394 
L 383.154382 -357.599141 
L 383.281327 -357.466764 
L 383.408272 -357.333266 
L 383.535217 -357.198647 
L 383.662162 -357.06291 
L 383.789107 -356.926056 
L 383.916052 -356.788087 
L 384.042998 -356.649004 
L 384.169943 -356.508809 
L 384.296888 -356.367503 
L 384.423833 -356.225089 
L 384.550778 -356.081567 
L 384.677723 -355.936941 
L 384.804668 -355.79121 
L 384.931613 -355.644378 
L 385.058559 -355.496445 
L 385.185504 -355.347414 
L 385.312449 -355.197286 
L 385.439394 -355.046063 
L 385.566339 -354.893747 
L 385.693284 -354.74034 
L 385.820229 -354.585843 
L 385.947174 -354.430258 
L 386.07412 -354.273587 
L 386.201065 -354.115832 
L 386.32801 -353.956995 
L 386.454955 -353.797077 
L 386.5819 -353.636081 
L 386.708845 -353.474009 
L 386.83579 -353.310861 
L 386.962735 -353.146641 
L 387.089681 -352.98135 
L 387.216626 -352.814989 
L 387.343571 -352.647562 
L 387.470516 -352.47907 
L 387.597461 -352.309514 
L 387.724406 -352.138898 
L 387.851351 -351.967222 
L 387.978296 -351.794489 
L 388.105242 -351.620701 
L 388.232187 -351.44586 
L 388.359132 -351.269968 
L 388.486077 -351.093027 
L 388.613022 -350.915039 
L 388.739967 -350.736006 
L 388.866912 -350.55593 
L 388.993857 -350.374814 
L 389.120803 -350.192659 
L 389.247748 -350.009468 
L 389.374693 -349.825242 
L 389.501638 -349.639984 
L 389.628583 -349.453696 
L 389.755528 -349.26638 
L 389.882473 -349.078038 
L 390.009419 -348.888673 
L 390.136364 -348.698287 
L 390.263309 -348.506881 
L 390.390254 -348.314459 
L 390.517199 -348.121021 
L 390.644144 -347.926572 
L 390.771089 -347.731112 
L 390.898034 -347.534644 
L 391.02498 -347.33717 
L 391.151925 -347.138694 
L 391.27887 -346.939216 
L 391.405815 -346.738739 
L 391.53276 -346.537265 
L 391.659705 -346.334798 
L 391.78665 -346.131339 
L 391.913595 -345.92689 
L 392.040541 -345.721454 
L 392.167486 -345.515033 
L 392.294431 -345.30763 
L 392.421376 -345.099246 
L 392.548321 -344.889886 
L 392.675266 -344.679549 
L 392.802211 -344.46824 
L 392.929156 -344.255961 
L 393.056102 -344.042714 
L 393.183047 -343.828501 
L 393.309992 -343.613325 
L 393.436937 -343.397188 
L 393.563882 -343.180094 
L 393.690827 -342.962043 
L 393.817772 -342.74304 
L 393.944717 -342.523086 
L 394.071663 -342.302183 
L 394.198608 -342.080335 
L 394.325553 -341.857544 
L 394.452498 -341.633812 
L 394.579443 -341.409142 
L 394.706388 -341.183537 
L 394.833333 -340.956999 
L 394.960278 -340.72953 
L 395.087224 -340.501134 
L 395.214169 -340.271812 
L 395.341114 -340.041568 
L 395.468059 -339.810404 
L 395.595004 -339.578323 
L 395.721949 -339.345327 
L 395.848894 -339.111419 
L 395.975839 -338.876601 
L 396.102785 -338.640877 
L 396.22973 -338.404248 
L 396.356675 -338.166718 
L 396.48362 -337.92829 
L 396.610565 -337.688965 
L 396.73751 -337.448747 
L 396.864455 -337.207638 
L 396.9914 -336.965641 
L 397.118346 -336.722759 
L 397.245291 -336.478995 
L 397.372236 -336.23435 
L 397.499181 -335.988829 
L 397.626126 -335.742433 
L 397.753071 -335.495166 
L 397.880016 -335.24703 
L 398.006962 -334.998029 
L 398.133907 -334.748164 
L 398.260852 -334.497438 
L 398.387797 -334.245855 
L 398.514742 -333.993418 
L 398.641687 -333.740128 
L 398.768632 -333.485989 
L 398.895577 -333.231004 
L 399.022523 -332.975176 
L 399.149468 -332.718506 
L 399.276413 -332.461 
L 399.403358 -332.202658 
L 399.530303 -331.943484 
L 399.657248 -331.683481 
L 399.784193 -331.422652 
L 399.911138 -331.160999 
L 400.038084 -330.898526 
L 400.165029 -330.635235 
L 400.291974 -330.37113 
L 400.418919 -330.106213 
L 400.545864 -329.840487 
L 400.672809 -329.573956 
L 400.799754 -329.306621 
L 400.926699 -329.038486 
L 401.053645 -328.769555 
L 401.18059 -328.499829 
L 401.307535 -328.229312 
L 401.43448 -327.958007 
L 401.561425 -327.685917 
L 401.68837 -327.413044 
L 401.815315 -327.139393 
L 401.94226 -326.864965 
L 402.069206 -326.589764 
L 402.196151 -326.313793 
L 402.323096 -326.037054 
L 402.450041 -325.759552 
L 402.576986 -325.481288 
L 402.703931 -325.202267 
L 402.830876 -324.92249 
L 402.957821 -324.641962 
L 403.084767 -324.360684 
L 403.211712 -324.07866 
L 403.338657 -323.795894 
L 403.465602 -323.512388 
L 403.592547 -323.228145 
L 403.719492 -322.943169 
L 403.846437 -322.657462 
L 403.973382 -322.371028 
L 404.100328 -322.08387 
L 404.227273 -321.79599 
L 404.354218 -321.507392 
L 404.481163 -321.218079 
L 404.608108 -320.928054 
L 404.735053 -320.637321 
L 404.861998 -320.345882 
L 404.988943 -320.05374 
L 405.115889 -319.760899 
L 405.242834 -319.467362 
L 405.369779 -319.173131 
L 405.496724 -318.878211 
L 405.623669 -318.582604 
L 405.750614 -318.286313 
L 405.877559 -317.989342 
L 406.004505 -317.691694 
L 406.13145 -317.393371 
L 406.258395 -317.094378 
L 406.38534 -316.794717 
L 406.512285 -316.494391 
L 406.63923 -316.193404 
L 406.766175 -315.891759 
L 406.89312 -315.589459 
L 407.020066 -315.286507 
L 407.147011 -314.982906 
L 407.273956 -314.67866 
L 407.400901 -314.373772 
L 407.527846 -314.068246 
L 407.654791 -313.762083 
L 407.781736 -313.455288 
L 407.908681 -313.147864 
L 408.035627 -312.839813 
L 408.162572 -312.53114 
L 408.289517 -312.221848 
L 408.416462 -311.911939 
L 408.543407 -311.601417 
L 408.670352 -311.290286 
L 408.797297 -310.978547 
L 408.924242 -310.666206 
L 409.051188 -310.353265 
L 409.178133 -310.039727 
L 409.305078 -309.725595 
L 409.432023 -309.410873 
L 409.558968 -309.095564 
L 409.685913 -308.779672 
L 409.812858 -308.463199 
L 409.939803 -308.146149 
L 410.066749 -307.828526 
L 410.193694 -307.510332 
L 410.320639 -307.19157 
L 410.447584 -306.872245 
L 410.574529 -306.552359 
L 410.701474 -306.231916 
L 410.828419 -305.910918 
L 410.955364 -305.58937 
L 411.08231 -305.267275 
L 411.209255 -304.944635 
L 411.3362 -304.621454 
L 411.463145 -304.297736 
L 411.59009 -303.973484 
L 411.717035 -303.648701 
L 411.84398 -303.32339 
L 411.970925 -302.997555 
L 412.097871 -302.671199 
L 412.224816 -302.344326 
L 412.351761 -302.016938 
L 412.478706 -301.689039 
L 412.605651 -301.360633 
L 412.732596 -301.031722 
L 412.859541 -300.70231 
L 412.986486 -300.372401 
L 413.113432 -300.041997 
L 413.240377 -299.711102 
L 413.367322 -299.37972 
L 413.494267 -299.047854 
L 413.621212 -298.715506 
L 413.748157 -298.382681 
L 413.875102 -298.049381 
L 414.002048 -297.715611 
L 414.128993 -297.381372 
L 414.255938 -297.04667 
L 414.382883 -296.711507 
L 414.509828 -296.375886 
L 414.636773 -296.03981 
L 414.763718 -295.703284 
L 414.890663 -295.366311 
L 415.017609 -295.028893 
L 415.144554 -294.691034 
L 415.271499 -294.352738 
L 415.398444 -294.014008 
L 415.525389 -293.674846 
L 415.652334 -293.335258 
L 415.779279 -292.995245 
L 415.906224 -292.654811 
L 416.03317 -292.31396 
L 416.160115 -291.972695 
L 416.28706 -291.63102 
L 416.414005 -291.288936 
L 416.54095 -290.946449 
L 416.667895 -290.603561 
L 416.79484 -290.260276 
L 416.921785 -289.916597 
L 417.048731 -289.572527 
L 417.175676 -289.22807 
L 417.302621 -288.883229 
L 417.429566 -288.538007 
L 417.556511 -288.192408 
L 417.683456 -287.846436 
L 417.810401 -287.500092 
L 417.937346 -287.153382 
L 418.064292 -286.806307 
L 418.191237 -286.458872 
L 418.318182 -286.11108 
L 418.445127 -285.762934 
L 418.572072 -285.414437 
L 418.699017 -285.065594 
L 418.825962 -284.716406 
L 418.952907 -284.366878 
L 419.079853 -284.017013 
L 419.206798 -283.666814 
L 419.333743 -283.316285 
L 419.460688 -282.965428 
L 419.587633 -282.614247 
L 419.714578 -282.262746 
L 419.841523 -281.910928 
L 419.968468 -281.558796 
L 420.095414 -281.206354 
L 420.222359 -280.853604 
L 420.349304 -280.50055 
L 420.476249 -280.147196 
L 420.603194 -279.793545 
L 420.730139 -279.4396 
L 420.857084 -279.085364 
L 420.984029 -278.73084 
L 421.110975 -278.376033 
L 421.23792 -278.020945 
L 421.364865 -277.66558 
L 421.49181 -277.309941 
L 421.618755 -276.954031 
L 421.7457 -276.597853 
L 421.872645 -276.241411 
L 421.99959 -275.884709 
L 422.126536 -275.527748 
L 422.253481 -275.170534 
L 422.380426 -274.813068 
L 422.507371 -274.455355 
L 422.634316 -274.097397 
L 422.761261 -273.739199 
L 422.888206 -273.380762 
L 423.015152 -273.022091 
L 423.142097 -272.663188 
L 423.269042 -272.304057 
L 423.395987 -271.944702 
L 423.522932 -271.585125 
L 423.649877 -271.225329 
L 423.776822 -270.865319 
L 423.903767 -270.505097 
L 424.030713 -270.144666 
L 424.157658 -269.78403 
L 424.284603 -269.423192 
L 424.411548 -269.062156 
L 424.538493 -268.700924 
L 424.665438 -268.339499 
L 424.792383 -267.977885 
L 424.919328 -267.616086 
L 425.046274 -267.254104 
L 425.173219 -266.891942 
L 425.300164 -266.529605 
L 425.427109 -266.167094 
L 425.554054 -265.804414 
L 425.680999 -265.441567 
L 425.807944 -265.078557 
L 425.934889 -264.715386 
L 426.061835 -264.352059 
L 426.18878 -263.988578 
L 426.315725 -263.624946 
L 426.44267 -263.261167 
L 426.569615 -262.897244 
L 426.69656 -262.53318 
L 426.823505 -262.168978 
L 426.95045 -261.804641 
L 427.077396 -261.440173 
L 427.204341 -261.075576 
L 427.331286 -260.710854 
L 427.458231 -260.34601 
L 427.585176 -259.981047 
L 427.712121 -259.615969 
L 427.839066 -259.250777 
L 427.966011 -258.885477 
L 428.092957 -258.52007 
L 428.219902 -258.154559 
L 428.346847 -257.788949 
L 428.473792 -257.423241 
L 428.600737 -257.05744 
L 428.727682 -256.691548 
L 428.854627 -256.325568 
L 428.981572 -255.959504 
L 429.108518 -255.593358 
L 429.235463 -255.227133 
L 429.362408 -254.860834 
L 429.489353 -254.494462 
L 429.616298 -254.12802 
L 429.743243 -253.761513 
L 429.870188 -253.394943 
L 429.997133 -253.028313 
L 430.124079 -252.661625 
L 430.251024 -252.294884 
L 430.377969 -251.928092 
L 430.504914 -251.561252 
L 430.631859 -251.194368 
L 430.758804 -250.827441 
L 430.885749 -250.460476 
L 431.012695 -250.093475 
L 431.13964 -249.726442 
L 431.266585 -249.359378 
L 431.39353 -248.992288 
L 431.520475 -248.625174 
L 431.64742 -248.25804 
L 431.774365 -247.890888 
L 431.90131 -247.52372 
L 432.028256 -247.156541 
L 432.155201 -246.789354 
L 432.282146 -246.42216 
L 432.409091 -246.054963 
L 432.409091 -62.64 
L 432.409091 -62.64 
L 432.282146 -62.64 
L 432.155201 -62.64 
L 432.028256 -62.64 
L 431.90131 -62.64 
L 431.774365 -62.64 
L 431.64742 -62.64 
L 431.520475 -62.64 
L 431.39353 -62.64 
L 431.266585 -62.64 
L 431.13964 -62.64 
L 431.012695 -62.64 
L 430.885749 -62.64 
L 430.758804 -62.64 
L 430.631859 -62.64 
L 430.504914 -62.64 
L 430.377969 -62.64 
L 430.251024 -62.64 
L 430.124079 -62.64 
L 429.997133 -62.64 
L 429.870188 -62.64 
L 429.743243 -62.64 
L 429.616298 -62.64 
L 429.489353 -62.64 
L 429.362408 -62.64 
L 429.235463 -62.64 
L 429.108518 -62.64 
L 428.981572 -62.64 
L 428.854627 -62.64 
L 428.727682 -62.64 
L 428.600737 -62.64 
L 428.473792 -62.64 
L 428.346847 -62.64 
L 428.219902 -62.64 
L 428.092957 -62.64 
L 427.966011 -62.64 
L 427.839066 -62.64 
L 427.712121 -62.64 
L 427.585176 -62.64 
L 427.458231 -62.64 
L 427.331286 -62.64 
L 427.204341 -62.64 
L 427.077396 -62.64 
L 426.95045 -62.64 
L 426.823505 -62.64 
L 426.69656 -62.64 
L 426.569615 -62.64 
L 426.44267 -62.64 
L 426.315725 -62.64 
L 426.18878 -62.64 
L 426.061835 -62.64 
L 425.934889 -62.64 
L 425.807944 -62.64 
L 425.680999 -62.64 
L 425.554054 -62.64 
L 425.427109 -62.64 
L 425.300164 -62.64 
L 425.173219 -62.64 
L 425.046274 -62.64 
L 424.919328 -62.64 
L 424.792383 -62.64 
L 424.665438 -62.64 
L 424.538493 -62.64 
L 424.411548 -62.64 
L 424.284603 -62.64 
L 424.157658 -62.64 
L 424.030713 -62.64 
L 423.903767 -62.64 
L 423.776822 -62.64 
L 423.649877 -62.64 
L 423.522932 -62.64 
L 423.395987 -62.64 
L 423.269042 -62.64 
L 423.142097 -62.64 
L 423.015152 -62.64 
L 422.888206 -62.64 
L 422.761261 -62.64 
L 422.634316 -62.64 
L 422.507371 -62.64 
L 422.380426 -62.64 
L 422.253481 -62.64 
L 422.126536 -62.64 
L 421.99959 -62.64 
L 421.872645 -62.64 
L 421.7457 -62.64 
L 421.618755 -62.64 
L 421.49181 -62.64 
L 421.364865 -62.64 
L 421.23792 -62.64 
L 421.110975 -62.64 
L 420.984029 -62.64 
L 420.857084 -62.64 
L 420.730139 -62.64 
L 420.603194 -62.64 
L 420.476249 -62.64 
L 420.349304 -62.64 
L 420.222359 -62.64 
L 420.095414 -62.64 
L 419.968468 -62.64 
L 419.841523 -62.64 
L 419.714578 -62.64 
L 419.587633 -62.64 
L 419.460688 -62.64 
L 419.333743 -62.64 
L 419.206798 -62.64 
L 419.079853 -62.64 
L 418.952907 -62.64 
L 418.825962 -62.64 
L 418.699017 -62.64 
L 418.572072 -62.64 
L 418.445127 -62.64 
L 418.318182 -62.64 
L 418.191237 -62.64 
L 418.064292 -62.64 
L 417.937346 -62.64 
L 417.810401 -62.64 
L 417.683456 -62.64 
L 417.556511 -62.64 
L 417.429566 -62.64 
L 417.302621 -62.64 
L 417.175676 -62.64 
L 417.048731 -62.64 
L 416.921785 -62.64 
L 416.79484 -62.64 
L 416.667895 -62.64 
L 416.54095 -62.64 
L 416.414005 -62.64 
L 416.28706 -62.64 
L 416.160115 -62.64 
L 416.03317 -62.64 
L 415.906224 -62.64 
L 415.779279 -62.64 
L 415.652334 -62.64 
L 415.525389 -62.64 
L 415.398444 -62.64 
L 415.271499 -62.64 
L 415.144554 -62.64 
L 415.017609 -62.64 
L 414.890663 -62.64 
L 414.763718 -62.64 
L 414.636773 -62.64 
L 414.509828 -62.64 
L 414.382883 -62.64 
L 414.255938 -62.64 
L 414.128993 -62.64 
L 414.002048 -62.64 
L 413.875102 -62.64 
L 413.748157 -62.64 
L 413.621212 -62.64 
L 413.494267 -62.64 
L 413.367322 -62.64 
L 413.240377 -62.64 
L 413.113432 -62.64 
L 412.986486 -62.64 
L 412.859541 -62.64 
L 412.732596 -62.64 
L 412.605651 -62.64 
L 412.478706 -62.64 
L 412.351761 -62.64 
L 412.224816 -62.64 
L 412.097871 -62.64 
L 411.970925 -62.64 
L 411.84398 -62.64 
L 411.717035 -62.64 
L 411.59009 -62.64 
L 411.463145 -62.64 
L 411.3362 -62.64 
L 411.209255 -62.64 
L 411.08231 -62.64 
L 410.955364 -62.64 
L 410.828419 -62.64 
L 410.701474 -62.64 
L 410.574529 -62.64 
L 410.447584 -62.64 
L 410.320639 -62.64 
L 410.193694 -62.64 
L 410.066749 -62.64 
L 409.939803 -62.64 
L 409.812858 -62.64 
L 409.685913 -62.64 
L 409.558968 -62.64 
L 409.432023 -62.64 
L 409.305078 -62.64 
L 409.178133 -62.64 
L 409.051188 -62.64 
L 408.924242 -62.64 
L 408.797297 -62.64 
L 408.670352 -62.64 
L 408.543407 -62.64 
L 408.416462 -62.64 
L 408.289517 -62.64 
L 408.162572 -62.64 
L 408.035627 -62.64 
L 407.908681 -62.64 
L 407.781736 -62.64 
L 407.654791 -62.64 
L 407.527846 -62.64 
L 407.400901 -62.64 
L 407.273956 -62.64 
L 407.147011 -62.64 
L 407.020066 -62.64 
L 406.89312 -62.64 
L 406.766175 -62.64 
L 406.63923 -62.64 
L 406.512285 -62.64 
L 406.38534 -62.64 
L 406.258395 -62.64 
L 406.13145 -62.64 
L 406.004505 -62.64 
L 405.877559 -62.64 
L 405.750614 -62.64 
L 405.623669 -62.64 
L 405.496724 -62.64 
L 405.369779 -62.64 
L 405.242834 -62.64 
L 405.115889 -62.64 
L 404.988943 -62.64 
L 404.861998 -62.64 
L 404.735053 -62.64 
L 404.608108 -62.64 
L 404.481163 -62.64 
L 404.354218 -62.64 
L 404.227273 -62.64 
L 404.100328 -62.64 
L 403.973382 -62.64 
L 403.846437 -62.64 
L 403.719492 -62.64 
L 403.592547 -62.64 
L 403.465602 -62.64 
L 403.338657 -62.64 
L 403.211712 -62.64 
L 403.084767 -62.64 
L 402.957821 -62.64 
L 402.830876 -62.64 
L 402.703931 -62.64 
L 402.576986 -62.64 
L 402.450041 -62.64 
L 402.323096 -62.64 
L 402.196151 -62.64 
L 402.069206 -62.64 
L 401.94226 -62.64 
L 401.815315 -62.64 
L 401.68837 -62.64 
L 401.561425 -62.64 
L 401.43448 -62.64 
L 401.307535 -62.64 
L 401.18059 -62.64 
L 401.053645 -62.64 
L 400.926699 -62.64 
L 400.799754 -62.64 
L 400.672809 -62.64 
L 400.545864 -62.64 
L 400.418919 -62.64 
L 400.291974 -62.64 
L 400.165029 -62.64 
L 400.038084 -62.64 
L 399.911138 -62.64 
L 399.784193 -62.64 
L 399.657248 -62.64 
L 399.530303 -62.64 
L 399.403358 -62.64 
L 399.276413 -62.64 
L 399.149468 -62.64 
L 399.022523 -62.64 
L 398.895577 -62.64 
L 398.768632 -62.64 
L 398.641687 -62.64 
L 398.514742 -62.64 
L 398.387797 -62.64 
L 398.260852 -62.64 
L 398.133907 -62.64 
L 398.006962 -62.64 
L 397.880016 -62.64 
L 397.753071 -62.64 
L 397.626126 -62.64 
L 397.499181 -62.64 
L 397.372236 -62.64 
L 397.245291 -62.64 
L 397.118346 -62.64 
L 396.9914 -62.64 
L 396.864455 -62.64 
L 396.73751 -62.64 
L 396.610565 -62.64 
L 396.48362 -62.64 
L 396.356675 -62.64 
L 396.22973 -62.64 
L 396.102785 -62.64 
L 395.975839 -62.64 
L 395.848894 -62.64 
L 395.721949 -62.64 
L 395.595004 -62.64 
L 395.468059 -62.64 
L 395.341114 -62.64 
L 395.214169 -62.64 
L 395.087224 -62.64 
L 394.960278 -62.64 
L 394.833333 -62.64 
L 394.706388 -62.64 
L 394.579443 -62.64 
L 394.452498 -62.64 
L 394.325553 -62.64 
L 394.198608 -62.64 
L 394.071663 -62.64 
L 393.944717 -62.64 
L 393.817772 -62.64 
L 393.690827 -62.64 
L 393.563882 -62.64 
L 393.436937 -62.64 
L 393.309992 -62.64 
L 393.183047 -62.64 
L 393.056102 -62.64 
L 392.929156 -62.64 
L 392.802211 -62.64 
L 392.675266 -62.64 
L 392.548321 -62.64 
L 392.421376 -62.64 
L 392.294431 -62.64 
L 392.167486 -62.64 
L 392.040541 -62.64 
L 391.913595 -62.64 
L 391.78665 -62.64 
L 391.659705 -62.64 
L 391.53276 -62.64 
L 391.405815 -62.64 
L 391.27887 -62.64 
L 391.151925 -62.64 
L 391.02498 -62.64 
L 390.898034 -62.64 
L 390.771089 -62.64 
L 390.644144 -62.64 
L 390.517199 -62.64 
L 390.390254 -62.64 
L 390.263309 -62.64 
L 390.136364 -62.64 
L 390.009419 -62.64 
L 389.882473 -62.64 
L 389.755528 -62.64 
L 389.628583 -62.64 
L 389.501638 -62.64 
L 389.374693 -62.64 
L 389.247748 -62.64 
L 389.120803 -62.64 
L 388.993857 -62.64 
L 388.866912 -62.64 
L 388.739967 -62.64 
L 388.613022 -62.64 
L 388.486077 -62.64 
L 388.359132 -62.64 
L 388.232187 -62.64 
L 388.105242 -62.64 
L 387.978296 -62.64 
L 387.851351 -62.64 
L 387.724406 -62.64 
L 387.597461 -62.64 
L 387.470516 -62.64 
L 387.343571 -62.64 
L 387.216626 -62.64 
L 387.089681 -62.64 
L 386.962735 -62.64 
L 386.83579 -62.64 
L 386.708845 -62.64 
L 386.5819 -62.64 
L 386.454955 -62.64 
L 386.32801 -62.64 
L 386.201065 -62.64 
L 386.07412 -62.64 
L 385.947174 -62.64 
L 385.820229 -62.64 
L 385.693284 -62.64 
L 385.566339 -62.64 
L 385.439394 -62.64 
L 385.312449 -62.64 
L 385.185504 -62.64 
L 385.058559 -62.64 
L 384.931613 -62.64 
L 384.804668 -62.64 
L 384.677723 -62.64 
L 384.550778 -62.64 
L 384.423833 -62.64 
L 384.296888 -62.64 
L 384.169943 -62.64 
L 384.042998 -62.64 
L 383.916052 -62.64 
L 383.789107 -62.64 
L 383.662162 -62.64 
L 383.535217 -62.64 
L 383.408272 -62.64 
L 383.281327 -62.64 
L 383.154382 -62.64 
L 383.027437 -62.64 
L 382.900491 -62.64 
L 382.773546 -62.64 
L 382.646601 -62.64 
L 382.519656 -62.64 
L 382.392711 -62.64 
L 382.265766 -62.64 
L 382.138821 -62.64 
L 382.011876 -62.64 
L 381.88493 -62.64 
L 381.757985 -62.64 
L 381.63104 -62.64 
L 381.504095 -62.64 
L 381.37715 -62.64 
L 381.250205 -62.64 
L 381.12326 -62.64 
L 380.996314 -62.64 
L 380.869369 -62.64 
L 380.742424 -62.64 
L 380.615479 -62.64 
L 380.488534 -62.64 
L 380.361589 -62.64 
L 380.234644 -62.64 
L 380.107699 -62.64 
L 379.980753 -62.64 
L 379.853808 -62.64 
L 379.726863 -62.64 
L 379.599918 -62.64 
L 379.472973 -62.64 
L 379.346028 -62.64 
L 379.219083 -62.64 
L 379.092138 -62.64 
L 378.965192 -62.64 
L 378.838247 -62.64 
L 378.711302 -62.64 
L 378.584357 -62.64 
L 378.457412 -62.64 
L 378.330467 -62.64 
L 378.203522 -62.64 
L 378.076577 -62.64 
L 377.949631 -62.64 
L 377.822686 -62.64 
L 377.695741 -62.64 
L 377.568796 -62.64 
L 377.441851 -62.64 
L 377.314906 -62.64 
L 377.187961 -62.64 
L 377.061016 -62.64 
L 376.93407 -62.64 
L 376.807125 -62.64 
L 376.68018 -62.64 
L 376.553235 -62.64 
L 376.42629 -62.64 
L 376.299345 -62.64 
L 376.1724 -62.64 
L 376.045455 -62.64 
L 375.918509 -62.64 
L 375.791564 -62.64 
L 375.664619 -62.64 
L 375.537674 -62.64 
L 375.410729 -62.64 
L 375.283784 -62.64 
L 375.156839 -62.64 
L 375.029894 -62.64 
L 374.902948 -62.64 
L 374.776003 -62.64 
L 374.649058 -62.64 
L 374.522113 -62.64 
L 374.395168 -62.64 
L 374.268223 -62.64 
L 374.141278 -62.64 
L 374.014333 -62.64 
L 373.887387 -62.64 
L 373.760442 -62.64 
L 373.633497 -62.64 
L 373.506552 -62.64 
L 373.379607 -62.64 
L 373.252662 -62.64 
L 373.125717 -62.64 
L 372.998771 -62.64 
L 372.871826 -62.64 
L 372.744881 -62.64 
L 372.617936 -62.64 
L 372.490991 -62.64 
L 372.364046 -62.64 
L 372.237101 -62.64 
L 372.110156 -62.64 
L 371.98321 -62.64 
L 371.856265 -62.64 
L 371.72932 -62.64 
L 371.602375 -62.64 
L 371.47543 -62.64 
L 371.348485 -62.64 
L 371.22154 -62.64 
L 371.094595 -62.64 
L 370.967649 -62.64 
L 370.840704 -62.64 
L 370.713759 -62.64 
L 370.586814 -62.64 
L 370.459869 -62.64 
L 370.332924 -62.64 
L 370.205979 -62.64 
L 370.079034 -62.64 
L 369.952088 -62.64 
L 369.825143 -62.64 
L 369.698198 -62.64 
L 369.571253 -62.64 
L 369.444308 -62.64 
L 369.317363 -62.64 
L 369.190418 -62.64 
L 369.063473 -62.64 
L 368.936527 -62.64 
L 368.809582 -62.64 
L 368.682637 -62.64 
L 368.555692 -62.64 
L 368.428747 -62.64 
L 368.301802 -62.64 
L 368.174857 -62.64 
L 368.047912 -62.64 
L 367.920966 -62.64 
L 367.794021 -62.64 
L 367.667076 -62.64 
L 367.540131 -62.64 
L 367.413186 -62.64 
L 367.286241 -62.64 
L 367.159296 -62.64 
L 367.032351 -62.64 
L 366.905405 -62.64 
L 366.77846 -62.64 
L 366.651515 -62.64 
L 366.52457 -62.64 
L 366.397625 -62.64 
L 366.27068 -62.64 
L 366.143735 -62.64 
L 366.01679 -62.64 
L 365.889844 -62.64 
L 365.762899 -62.64 
L 365.635954 -62.64 
L 365.509009 -62.64 
L 365.382064 -62.64 
L 365.255119 -62.64 
L 365.128174 -62.64 
L 365.001229 -62.64 
L 364.874283 -62.64 
L 364.747338 -62.64 
L 364.620393 -62.64 
L 364.493448 -62.64 
L 364.366503 -62.64 
L 364.239558 -62.64 
L 364.112613 -62.64 
L 363.985667 -62.64 
L 363.858722 -62.64 
L 363.731777 -62.64 
L 363.604832 -62.64 
L 363.477887 -62.64 
L 363.350942 -62.64 
L 363.223997 -62.64 
L 363.097052 -62.64 
L 362.970106 -62.64 
L 362.843161 -62.64 
L 362.716216 -62.64 
L 362.589271 -62.64 
L 362.462326 -62.64 
L 362.335381 -62.64 
L 362.208436 -62.64 
L 362.081491 -62.64 
L 361.954545 -62.64 
L 361.8276 -62.64 
L 361.700655 -62.64 
L 361.57371 -62.64 
L 361.446765 -62.64 
L 361.31982 -62.64 
L 361.192875 -62.64 
L 361.06593 -62.64 
L 360.938984 -62.64 
L 360.812039 -62.64 
L 360.685094 -62.64 
L 360.558149 -62.64 
L 360.431204 -62.64 
L 360.304259 -62.64 
L 360.177314 -62.64 
L 360.050369 -62.64 
L 359.923423 -62.64 
L 359.796478 -62.64 
L 359.669533 -62.64 
L 359.542588 -62.64 
L 359.415643 -62.64 
L 359.288698 -62.64 
L 359.161753 -62.64 
L 359.034808 -62.64 
L 358.907862 -62.64 
L 358.780917 -62.64 
L 358.653972 -62.64 
L 358.527027 -62.64 
L 358.400082 -62.64 
L 358.273137 -62.64 
L 358.146192 -62.64 
L 358.019247 -62.64 
L 357.892301 -62.64 
L 357.765356 -62.64 
L 357.638411 -62.64 
L 357.511466 -62.64 
L 357.384521 -62.64 
L 357.257576 -62.64 
L 357.130631 -62.64 
L 357.003686 -62.64 
L 356.87674 -62.64 
L 356.749795 -62.64 
L 356.62285 -62.64 
L 356.495905 -62.64 
L 356.36896 -62.64 
L 356.242015 -62.64 
L 356.11507 -62.64 
L 355.988124 -62.64 
L 355.861179 -62.64 
L 355.734234 -62.64 
L 355.607289 -62.64 
L 355.480344 -62.64 
L 355.353399 -62.64 
L 355.226454 -62.64 
L 355.099509 -62.64 
L 354.972563 -62.64 
L 354.845618 -62.64 
L 354.718673 -62.64 
L 354.591728 -62.64 
L 354.464783 -62.64 
L 354.337838 -62.64 
L 354.210893 -62.64 
L 354.083948 -62.64 
L 353.957002 -62.64 
L 353.830057 -62.64 
L 353.703112 -62.64 
L 353.576167 -62.64 
L 353.449222 -62.64 
L 353.322277 -62.64 
L 353.195332 -62.64 
L 353.068387 -62.64 
L 352.941441 -62.64 
L 352.814496 -62.64 
L 352.687551 -62.64 
L 352.560606 -62.64 
L 352.433661 -62.64 
L 352.306716 -62.64 
L 352.179771 -62.64 
L 352.052826 -62.64 
L 351.92588 -62.64 
L 351.798935 -62.64 
L 351.67199 -62.64 
L 351.545045 -62.64 
L 351.4181 -62.64 
L 351.291155 -62.64 
L 351.16421 -62.64 
L 351.037265 -62.64 
L 350.910319 -62.64 
L 350.783374 -62.64 
L 350.656429 -62.64 
L 350.529484 -62.64 
L 350.402539 -62.64 
L 350.275594 -62.64 
L 350.148649 -62.64 
L 350.021704 -62.64 
L 349.894758 -62.64 
L 349.767813 -62.64 
L 349.640868 -62.64 
L 349.513923 -62.64 
L 349.386978 -62.64 
L 349.260033 -62.64 
L 349.133088 -62.64 
L 349.006143 -62.64 
L 348.879197 -62.64 
L 348.752252 -62.64 
L 348.625307 -62.64 
L 348.498362 -62.64 
L 348.371417 -62.64 
L 348.244472 -62.64 
L 348.117527 -62.64 
L 347.990581 -62.64 
L 347.863636 -62.64 
L 347.736691 -62.64 
L 347.609746 -62.64 
L 347.482801 -62.64 
L 347.355856 -62.64 
L 347.228911 -62.64 
L 347.101966 -62.64 
L 346.97502 -62.64 
L 346.848075 -62.64 
L 346.72113 -62.64 
L 346.594185 -62.64 
L 346.46724 -62.64 
L 346.340295 -62.64 
L 346.21335 -62.64 
L 346.086405 -62.64 
L 345.959459 -62.64 
L 345.832514 -62.64 
L 345.705569 -62.64 
L 345.578624 -62.64 
L 345.451679 -62.64 
L 345.324734 -62.64 
L 345.197789 -62.64 
L 345.070844 -62.64 
L 344.943898 -62.64 
L 344.816953 -62.64 
L 344.690008 -62.64 
L 344.563063 -62.64 
L 344.436118 -62.64 
L 344.309173 -62.64 
L 344.182228 -62.64 
L 344.055283 -62.64 
L 343.928337 -62.64 
L 343.801392 -62.64 
L 343.674447 -62.64 
L 343.547502 -62.64 
L 343.420557 -62.64 
L 343.293612 -62.64 
L 343.166667 -62.64 
L 343.039722 -62.64 
L 342.912776 -62.64 
L 342.785831 -62.64 
L 342.658886 -62.64 
L 342.531941 -62.64 
L 342.404996 -62.64 
L 342.278051 -62.64 
L 342.151106 -62.64 
L 342.024161 -62.64 
L 341.897215 -62.64 
L 341.77027 -62.64 
L 341.643325 -62.64 
L 341.51638 -62.64 
L 341.389435 -62.64 
L 341.26249 -62.64 
L 341.135545 -62.64 
L 341.0086 -62.64 
L 340.881654 -62.64 
L 340.754709 -62.64 
L 340.627764 -62.64 
L 340.500819 -62.64 
L 340.373874 -62.64 
L 340.246929 -62.64 
L 340.119984 -62.64 
L 339.993038 -62.64 
L 339.866093 -62.64 
L 339.739148 -62.64 
L 339.612203 -62.64 
L 339.485258 -62.64 
L 339.358313 -62.64 
L 339.231368 -62.64 
L 339.104423 -62.64 
L 338.977477 -62.64 
L 338.850532 -62.64 
L 338.723587 -62.64 
L 338.596642 -62.64 
L 338.469697 -62.64 
L 338.342752 -62.64 
L 338.215807 -62.64 
L 338.088862 -62.64 
L 337.961916 -62.64 
L 337.834971 -62.64 
L 337.708026 -62.64 
L 337.581081 -62.64 
L 337.454136 -62.64 
L 337.327191 -62.64 
L 337.200246 -62.64 
L 337.073301 -62.64 
L 336.946355 -62.64 
L 336.81941 -62.64 
L 336.692465 -62.64 
L 336.56552 -62.64 
L 336.438575 -62.64 
L 336.31163 -62.64 
L 336.184685 -62.64 
L 336.05774 -62.64 
L 335.930794 -62.64 
L 335.803849 -62.64 
L 335.676904 -62.64 
L 335.549959 -62.64 
L 335.423014 -62.64 
L 335.296069 -62.64 
L 335.169124 -62.64 
L 335.042179 -62.64 
L 334.915233 -62.64 
L 334.788288 -62.64 
L 334.661343 -62.64 
L 334.534398 -62.64 
L 334.407453 -62.64 
L 334.280508 -62.64 
L 334.153563 -62.64 
L 334.026618 -62.64 
L 333.899672 -62.64 
L 333.772727 -62.64 
L 333.645782 -62.64 
L 333.518837 -62.64 
L 333.391892 -62.64 
L 333.264947 -62.64 
L 333.138002 -62.64 
L 333.011057 -62.64 
L 332.884111 -62.64 
L 332.757166 -62.64 
L 332.630221 -62.64 
L 332.503276 -62.64 
L 332.376331 -62.64 
L 332.249386 -62.64 
L 332.122441 -62.64 
L 331.995495 -62.64 
L 331.86855 -62.64 
L 331.741605 -62.64 
L 331.61466 -62.64 
L 331.487715 -62.64 
L 331.36077 -62.64 
L 331.233825 -62.64 
L 331.10688 -62.64 
L 330.979934 -62.64 
L 330.852989 -62.64 
L 330.726044 -62.64 
L 330.599099 -62.64 
L 330.472154 -62.64 
L 330.345209 -62.64 
L 330.218264 -62.64 
L 330.091319 -62.64 
L 329.964373 -62.64 
L 329.837428 -62.64 
L 329.710483 -62.64 
L 329.583538 -62.64 
L 329.456593 -62.64 
L 329.329648 -62.64 
L 329.202703 -62.64 
L 329.075758 -62.64 
L 328.948812 -62.64 
L 328.821867 -62.64 
L 328.694922 -62.64 
L 328.567977 -62.64 
L 328.441032 -62.64 
L 328.314087 -62.64 
L 328.187142 -62.64 
L 328.060197 -62.64 
L 327.933251 -62.64 
L 327.806306 -62.64 
L 327.679361 -62.64 
L 327.552416 -62.64 
L 327.425471 -62.64 
L 327.298526 -62.64 
L 327.171581 -62.64 
L 327.044636 -62.64 
L 326.91769 -62.64 
L 326.790745 -62.64 
L 326.6638 -62.64 
L 326.536855 -62.64 
L 326.40991 -62.64 
L 326.282965 -62.64 
L 326.15602 -62.64 
L 326.029075 -62.64 
L 325.902129 -62.64 
L 325.775184 -62.64 
L 325.648239 -62.64 
L 325.521294 -62.64 
L 325.394349 -62.64 
L 325.267404 -62.64 
L 325.140459 -62.64 
L 325.013514 -62.64 
L 324.886568 -62.64 
L 324.759623 -62.64 
L 324.632678 -62.64 
L 324.505733 -62.64 
L 324.378788 -62.64 
L 324.251843 -62.64 
L 324.124898 -62.64 
L 323.997952 -62.64 
L 323.871007 -62.64 
L 323.744062 -62.64 
L 323.617117 -62.64 
L 323.490172 -62.64 
L 323.363227 -62.64 
L 323.236282 -62.64 
L 323.109337 -62.64 
L 322.982391 -62.64 
L 322.855446 -62.64 
L 322.728501 -62.64 
L 322.601556 -62.64 
L 322.474611 -62.64 
L 322.347666 -62.64 
L 322.220721 -62.64 
L 322.093776 -62.64 
L 321.96683 -62.64 
L 321.839885 -62.64 
L 321.71294 -62.64 
L 321.585995 -62.64 
L 321.45905 -62.64 
L 321.332105 -62.64 
L 321.20516 -62.64 
L 321.078215 -62.64 
L 320.951269 -62.64 
L 320.824324 -62.64 
L 320.697379 -62.64 
L 320.570434 -62.64 
L 320.443489 -62.64 
L 320.316544 -62.64 
L 320.189599 -62.64 
L 320.062654 -62.64 
L 319.935708 -62.64 
L 319.808763 -62.64 
L 319.681818 -62.64 
L 319.554873 -62.64 
L 319.427928 -62.64 
L 319.300983 -62.64 
L 319.174038 -62.64 
L 319.047093 -62.64 
L 318.920147 -62.64 
L 318.793202 -62.64 
L 318.666257 -62.64 
L 318.539312 -62.64 
L 318.412367 -62.64 
L 318.285422 -62.64 
L 318.158477 -62.64 
L 318.031532 -62.64 
L 317.904586 -62.64 
L 317.777641 -62.64 
L 317.650696 -62.64 
L 317.523751 -62.64 
L 317.396806 -62.64 
L 317.269861 -62.64 
L 317.142916 -62.64 
L 317.015971 -62.64 
L 316.889025 -62.64 
L 316.76208 -62.64 
L 316.635135 -62.64 
L 316.50819 -62.64 
L 316.381245 -62.64 
L 316.2543 -62.64 
L 316.127355 -62.64 
L 316.00041 -62.64 
L 315.873464 -62.64 
L 315.746519 -62.64 
L 315.619574 -62.64 
L 315.492629 -62.64 
L 315.365684 -62.64 
L 315.238739 -62.64 
L 315.111794 -62.64 
L 314.984848 -62.64 
L 314.857903 -62.64 
L 314.730958 -62.64 
L 314.604013 -62.64 
L 314.477068 -62.64 
L 314.350123 -62.64 
L 314.223178 -62.64 
L 314.096233 -62.64 
L 313.969287 -62.64 
L 313.842342 -62.64 
L 313.715397 -62.64 
L 313.588452 -62.64 
L 313.461507 -62.64 
L 313.334562 -62.64 
L 313.207617 -62.64 
L 313.080672 -62.64 
L 312.953726 -62.64 
L 312.826781 -62.64 
L 312.699836 -62.64 
L 312.572891 -62.64 
L 312.445946 -62.64 
L 312.319001 -62.64 
L 312.192056 -62.64 
L 312.065111 -62.64 
L 311.938165 -62.64 
L 311.81122 -62.64 
L 311.684275 -62.64 
L 311.55733 -62.64 
L 311.430385 -62.64 
L 311.30344 -62.64 
L 311.176495 -62.64 
L 311.04955 -62.64 
L 310.922604 -62.64 
L 310.795659 -62.64 
L 310.668714 -62.64 
L 310.541769 -62.64 
L 310.414824 -62.64 
L 310.287879 -62.64 
L 310.160934 -62.64 
L 310.033989 -62.64 
L 309.907043 -62.64 
L 309.780098 -62.64 
L 309.653153 -62.64 
L 309.526208 -62.64 
L 309.399263 -62.64 
L 309.272318 -62.64 
L 309.145373 -62.64 
L 309.018428 -62.64 
L 308.891482 -62.64 
L 308.764537 -62.64 
L 308.637592 -62.64 
L 308.510647 -62.64 
L 308.383702 -62.64 
L 308.256757 -62.64 
L 308.129812 -62.64 
L 308.002867 -62.64 
L 307.875921 -62.64 
L 307.748976 -62.64 
L 307.622031 -62.64 
L 307.495086 -62.64 
L 307.368141 -62.64 
L 307.241196 -62.64 
L 307.114251 -62.64 
L 306.987305 -62.64 
L 306.86036 -62.64 
L 306.733415 -62.64 
L 306.60647 -62.64 
L 306.479525 -62.64 
L 306.35258 -62.64 
L 306.225635 -62.64 
L 306.09869 -62.64 
L 305.971744 -62.64 
L 305.844799 -62.64 
L 305.717854 -62.64 
L 305.590909 -62.64 
z
" style="stroke: #0000ff; stroke-opacity: 0.3"/>
    </defs>
    <g clip-path="url(#p01c728c4e2)">
     <use xlink:href="#m7fe02223c8" x="0" y="432" style="fill: #0000ff; fill-opacity: 0.3; stroke: #0000ff; stroke-opacity: 0.3"/>
    </g>
   </g>
   <g id="matplotlib.axis_1">
    <g id="xtick_1">
     <g id="line2d_1">
      <defs>
       <path id="m3fd856d15f" d="M 0 0 
L 0 3.5 
" style="stroke: #000000; stroke-width: 0.8"/>
      </defs>
      <g>
       <use xlink:href="#m3fd856d15f" x="115.363636" y="384.48" style="stroke: #000000; stroke-width: 0.8"/>
      </g>
     </g>
     <g id="text_1">
      <!-- −4 -->
      <g transform="translate(107.992543 399.078438) scale(0.1 -0.1)">
       <defs>
        <path id="DejaVuSans-2212" d="M 678 2272 
L 4684 2272 
L 4684 1741 
L 678 1741 
L 678 2272 
z
" transform="scale(0.015625)"/>
        <path id="DejaVuSans-34" d="M 2419 4116 
L 825 1625 
L 2419 1625 
L 2419 4116 
z
M 2253 4666 
L 3047 4666 
L 3047 1625 
L 3713 1625 
L 3713 1100 
L 3047 1100 
L 3047 0 
L 2419 0 
L 2419 1100 
L 313 1100 
L 313 1709 
L 2253 4666 
z
" transform="scale(0.015625)"/>
       </defs>
       <use xlink:href="#DejaVuSans-2212"/>
       <use xlink:href="#DejaVuSans-34" x="83.789062"/>
      </g>
     </g>
    </g>
    <g id="xtick_2">
     <g id="line2d_2">
      <g>
       <use xlink:href="#m3fd856d15f" x="178.772727" y="384.48" style="stroke: #000000; stroke-width: 0.8"/>
      </g>
     </g>
     <g id="text_2">
      <!-- −3 -->
      <g transform="translate(171.401634 399.078438) scale(0.1 -0.1)">
       <defs>
        <path id="DejaVuSans-33" d="M 2597 2516 
Q 3050 2419 3304 2112 
Q 3559 1806 3559 1356 
Q 3559 666 3084 287 
Q 2609 -91 1734 -91 
Q 1441 -91 1130 -33 
Q 819 25 488 141 
L 488 750 
Q 750 597 1062 519 
Q 1375 441 1716 441 
Q 2309 441 2620 675 
Q 2931 909 2931 1356 
Q 2931 1769 2642 2001 
Q 2353 2234 1838 2234 
L 1294 2234 
L 1294 2753 
L 1863 2753 
Q 2328 2753 2575 2939 
Q 2822 3125 2822 3475 
Q 2822 3834 2567 4026 
Q 2313 4219 1838 4219 
Q 1578 4219 1281 4162 
Q 984 4106 628 3988 
L 628 4550 
Q 988 4650 1302 4700 
Q 1616 4750 1894 4750 
Q 2613 4750 3031 4423 
Q 3450 4097 3450 3541 
Q 3450 3153 3228 2886 
Q 3006 2619 2597 2516 
z
" transform="scale(0.015625)"/>
       </defs>
       <use xlink:href="#DejaVuSans-2212"/>
       <use xlink:href="#DejaVuSans-33" x="83.789062"/>
      </g>
     </g>
    </g>
    <g id="xtick_3">
     <g id="line2d_3">
      <g>
       <use xlink:href="#m3fd856d15f" x="242.181818" y="384.48" style="stroke: #000000; stroke-width: 0.8"/>
      </g>
     </g>
     <g id="text_3">
      <!-- −2 -->
      <g transform="translate(234.810724 399.078438) scale(0.1 -0.1)">
       <defs>
        <path id="DejaVuSans-32" d="M 1228 531 
L 3431 531 
L 3431 0 
L 469 0 
L 469 531 
Q 828 903 1448 1529 
Q 2069 2156 2228 2338 
Q 2531 2678 2651 2914 
Q 2772 3150 2772 3378 
Q 2772 3750 2511 3984 
Q 2250 4219 1831 4219 
Q 1534 4219 1204 4116 
Q 875 4013 500 3803 
L 500 4441 
Q 881 4594 1212 4672 
Q 1544 4750 1819 4750 
Q 2544 4750 2975 4387 
Q 3406 4025 3406 3419 
Q 3406 3131 3298 2873 
Q 3191 2616 2906 2266 
Q 2828 2175 2409 1742 
Q 1991 1309 1228 531 
z
" transform="scale(0.015625)"/>
       </defs>
       <use xlink:href="#DejaVuSans-2212"/>
       <use xlink:href="#DejaVuSans-32" x="83.789062"/>
      </g>
     </g>
    </g>
    <g id="xtick_4">
     <g id="line2d_4">
      <g>
       <use xlink:href="#m3fd856d15f" x="305.590909" y="384.48" style="stroke: #000000; stroke-width: 0.8"/>
      </g>
     </g>
     <g id="text_4">
      <!-- −1 -->
      <g transform="translate(298.219815 399.078438) scale(0.1 -0.1)">
       <defs>
        <path id="DejaVuSans-31" d="M 794 531 
L 1825 531 
L 1825 4091 
L 703 3866 
L 703 4441 
L 1819 4666 
L 2450 4666 
L 2450 531 
L 3481 531 
L 3481 0 
L 794 0 
L 794 531 
z
" transform="scale(0.015625)"/>
       </defs>
       <use xlink:href="#DejaVuSans-2212"/>
       <use xlink:href="#DejaVuSans-31" x="83.789062"/>
      </g>
     </g>
    </g>
    <g id="xtick_5">
     <g id="line2d_5">
      <g>
       <use xlink:href="#m3fd856d15f" x="369" y="384.48" style="stroke: #000000; stroke-width: 0.8"/>
      </g>
     </g>
     <g id="text_5">
      <!-- 0 -->
      <g transform="translate(365.81875 399.078438) scale(0.1 -0.1)">
       <defs>
        <path id="DejaVuSans-30" d="M 2034 4250 
Q 1547 4250 1301 3770 
Q 1056 3291 1056 2328 
Q 1056 1369 1301 889 
Q 1547 409 2034 409 
Q 2525 409 2770 889 
Q 3016 1369 3016 2328 
Q 3016 3291 2770 3770 
Q 2525 4250 2034 4250 
z
M 2034 4750 
Q 2819 4750 3233 4129 
Q 3647 3509 3647 2328 
Q 3647 1150 3233 529 
Q 2819 -91 2034 -91 
Q 1250 -91 836 529 
Q 422 1150 422 2328 
Q 422 3509 836 4129 
Q 1250 4750 2034 4750 
z
" transform="scale(0.015625)"/>
       </defs>
       <use xlink:href="#DejaVuSans-30"/>
      </g>
     </g>
    </g>
    <g id="xtick_6">
     <g id="line2d_6">
      <g>
       <use xlink:href="#m3fd856d15f" x="432.409091" y="384.48" style="stroke: #000000; stroke-width: 0.8"/>
      </g>
     </g>
     <g id="text_6">
      <!-- 1 -->
      <g transform="translate(429.227841 399.078438) scale(0.1 -0.1)">
       <use xlink:href="#DejaVuSans-31"/>
      </g>
     </g>
    </g>
    <g id="xtick_7">
     <g id="line2d_7">
      <g>
       <use xlink:href="#m3fd856d15f" x="495.818182" y="384.48" style="stroke: #000000; stroke-width: 0.8"/>
      </g>
     </g>
     <g id="text_7">
      <!-- 2 -->
      <g transform="translate(492.636932 399.078438) scale(0.1 -0.1)">
       <use xlink:href="#DejaVuSans-32"/>
      </g>
     </g>
    </g>
    <g id="xtick_8">
     <g id="line2d_8">
      <g>
       <use xlink:href="#m3fd856d15f" x="559.227273" y="384.48" style="stroke: #000000; stroke-width: 0.8"/>
      </g>
     </g>
     <g id="text_8">
      <!-- 3 -->
      <g transform="translate(556.046023 399.078438) scale(0.1 -0.1)">
       <use xlink:href="#DejaVuSans-33"/>
      </g>
     </g>
    </g>
    <g id="xtick_9">
     <g id="line2d_9">
      <g>
       <use xlink:href="#m3fd856d15f" x="622.636364" y="384.48" style="stroke: #000000; stroke-width: 0.8"/>
      </g>
     </g>
     <g id="text_9">
      <!-- 4 -->
      <g transform="translate(619.455114 399.078438) scale(0.1 -0.1)">
       <use xlink:href="#DejaVuSans-34"/>
      </g>
     </g>
    </g>
    <g id="text_10">
     <!-- X-axis -->
     <g transform="translate(354.003906 412.756563) scale(0.1 -0.1)">
      <defs>
       <path id="DejaVuSans-58" d="M 403 4666 
L 1081 4666 
L 2241 2931 
L 3406 4666 
L 4084 4666 
L 2584 2425 
L 4184 0 
L 3506 0 
L 2194 1984 
L 872 0 
L 191 0 
L 1856 2491 
L 403 4666 
z
" transform="scale(0.015625)"/>
       <path id="DejaVuSans-2d" d="M 313 2009 
L 1997 2009 
L 1997 1497 
L 313 1497 
L 313 2009 
z
" transform="scale(0.015625)"/>
       <path id="DejaVuSans-61" d="M 2194 1759 
Q 1497 1759 1228 1600 
Q 959 1441 959 1056 
Q 959 750 1161 570 
Q 1363 391 1709 391 
Q 2188 391 2477 730 
Q 2766 1069 2766 1631 
L 2766 1759 
L 2194 1759 
z
M 3341 1997 
L 3341 0 
L 2766 0 
L 2766 531 
Q 2569 213 2275 61 
Q 1981 -91 1556 -91 
Q 1019 -91 701 211 
Q 384 513 384 1019 
Q 384 1609 779 1909 
Q 1175 2209 1959 2209 
L 2766 2209 
L 2766 2266 
Q 2766 2663 2505 2880 
Q 2244 3097 1772 3097 
Q 1472 3097 1187 3025 
Q 903 2953 641 2809 
L 641 3341 
Q 956 3463 1253 3523 
Q 1550 3584 1831 3584 
Q 2591 3584 2966 3190 
Q 3341 2797 3341 1997 
z
" transform="scale(0.015625)"/>
       <path id="DejaVuSans-78" d="M 3513 3500 
L 2247 1797 
L 3578 0 
L 2900 0 
L 1881 1375 
L 863 0 
L 184 0 
L 1544 1831 
L 300 3500 
L 978 3500 
L 1906 2253 
L 2834 3500 
L 3513 3500 
z
" transform="scale(0.015625)"/>
       <path id="DejaVuSans-69" d="M 603 3500 
L 1178 3500 
L 1178 0 
L 603 0 
L 603 3500 
z
M 603 4863 
L 1178 4863 
L 1178 4134 
L 603 4134 
L 603 4863 
z
" transform="scale(0.015625)"/>
       <path id="DejaVuSans-73" d="M 2834 3397 
L 2834 2853 
Q 2591 2978 2328 3040 
Q 2066 3103 1784 3103 
Q 1356 3103 1142 2972 
Q 928 2841 928 2578 
Q 928 2378 1081 2264 
Q 1234 2150 1697 2047 
L 1894 2003 
Q 2506 1872 2764 1633 
Q 3022 1394 3022 966 
Q 3022 478 2636 193 
Q 2250 -91 1575 -91 
Q 1294 -91 989 -36 
Q 684 19 347 128 
L 347 722 
Q 666 556 975 473 
Q 1284 391 1588 391 
Q 1994 391 2212 530 
Q 2431 669 2431 922 
Q 2431 1156 2273 1281 
Q 2116 1406 1581 1522 
L 1381 1569 
Q 847 1681 609 1914 
Q 372 2147 372 2553 
Q 372 3047 722 3315 
Q 1072 3584 1716 3584 
Q 2034 3584 2315 3537 
Q 2597 3491 2834 3397 
z
" transform="scale(0.015625)"/>
      </defs>
      <use xlink:href="#DejaVuSans-58"/>
      <use xlink:href="#DejaVuSans-2d" x="63.505859"/>
      <use xlink:href="#DejaVuSans-61" x="99.589844"/>
      <use xlink:href="#DejaVuSans-78" x="160.869141"/>
      <use xlink:href="#DejaVuSans-69" x="220.048828"/>
      <use xlink:href="#DejaVuSans-73" x="247.832031"/>
     </g>
    </g>
   </g>
   <g id="matplotlib.axis_2">
    <g id="ytick_1">
     <g id="line2d_10">
      <defs>
       <path id="m1c6965eb00" d="M 0 0 
L -3.5 0 
" style="stroke: #000000; stroke-width: 0.8"/>
      </defs>
      <g>
       <use xlink:href="#m1c6965eb00" x="90" y="369.36" style="stroke: #000000; stroke-width: 0.8"/>
      </g>
     </g>
     <g id="text_11">
      <!-- 0.00 -->
      <g transform="translate(60.734375 373.159219) scale(0.1 -0.1)">
       <defs>
        <path id="DejaVuSans-2e" d="M 684 794 
L 1344 794 
L 1344 0 
L 684 0 
L 684 794 
z
" transform="scale(0.015625)"/>
       </defs>
       <use xlink:href="#DejaVuSans-30"/>
       <use xlink:href="#DejaVuSans-2e" x="63.623047"/>
       <use xlink:href="#DejaVuSans-30" x="95.410156"/>
       <use xlink:href="#DejaVuSans-30" x="159.033203"/>
      </g>
     </g>
    </g>
    <g id="ytick_2">
     <g id="line2d_11">
      <g>
       <use xlink:href="#m1c6965eb00" x="90" y="331.459761" style="stroke: #000000; stroke-width: 0.8"/>
      </g>
     </g>
     <g id="text_12">
      <!-- 0.05 -->
      <g transform="translate(60.734375 335.25898) scale(0.1 -0.1)">
       <defs>
        <path id="DejaVuSans-35" d="M 691 4666 
L 3169 4666 
L 3169 4134 
L 1269 4134 
L 1269 2991 
Q 1406 3038 1543 3061 
Q 1681 3084 1819 3084 
Q 2600 3084 3056 2656 
Q 3513 2228 3513 1497 
Q 3513 744 3044 326 
Q 2575 -91 1722 -91 
Q 1428 -91 1123 -41 
Q 819 9 494 109 
L 494 744 
Q 775 591 1075 516 
Q 1375 441 1709 441 
Q 2250 441 2565 725 
Q 2881 1009 2881 1497 
Q 2881 1984 2565 2268 
Q 2250 2553 1709 2553 
Q 1456 2553 1204 2497 
Q 953 2441 691 2322 
L 691 4666 
z
" transform="scale(0.015625)"/>
       </defs>
       <use xlink:href="#DejaVuSans-30"/>
       <use xlink:href="#DejaVuSans-2e" x="63.623047"/>
       <use xlink:href="#DejaVuSans-30" x="95.410156"/>
       <use xlink:href="#DejaVuSans-35" x="159.033203"/>
      </g>
     </g>
    </g>
    <g id="ytick_3">
     <g id="line2d_12">
      <g>
       <use xlink:href="#m1c6965eb00" x="90" y="293.559523" style="stroke: #000000; stroke-width: 0.8"/>
      </g>
     </g>
     <g id="text_13">
      <!-- 0.10 -->
      <g transform="translate(60.734375 297.358742) scale(0.1 -0.1)">
       <use xlink:href="#DejaVuSans-30"/>
       <use xlink:href="#DejaVuSans-2e" x="63.623047"/>
       <use xlink:href="#DejaVuSans-31" x="95.410156"/>
       <use xlink:href="#DejaVuSans-30" x="159.033203"/>
      </g>
     </g>
    </g>
    <g id="ytick_4">
     <g id="line2d_13">
      <g>
       <use xlink:href="#m1c6965eb00" x="90" y="255.659284" style="stroke: #000000; stroke-width: 0.8"/>
      </g>
     </g>
     <g id="text_14">
      <!-- 0.15 -->
      <g transform="translate(60.734375 259.458503) scale(0.1 -0.1)">
       <use xlink:href="#DejaVuSans-30"/>
       <use xlink:href="#DejaVuSans-2e" x="63.623047"/>
       <use xlink:href="#DejaVuSans-31" x="95.410156"/>
       <use xlink:href="#DejaVuSans-35" x="159.033203"/>
      </g>
     </g>
    </g>
    <g id="ytick_5">
     <g id="line2d_14">
      <g>
       <use xlink:href="#m1c6965eb00" x="90" y="217.759046" style="stroke: #000000; stroke-width: 0.8"/>
      </g>
     </g>
     <g id="text_15">
      <!-- 0.20 -->
      <g transform="translate(60.734375 221.558265) scale(0.1 -0.1)">
       <use xlink:href="#DejaVuSans-30"/>
       <use xlink:href="#DejaVuSans-2e" x="63.623047"/>
       <use xlink:href="#DejaVuSans-32" x="95.410156"/>
       <use xlink:href="#DejaVuSans-30" x="159.033203"/>
      </g>
     </g>
    </g>
    <g id="ytick_6">
     <g id="line2d_15">
      <g>
       <use xlink:href="#m1c6965eb00" x="90" y="179.858807" style="stroke: #000000; stroke-width: 0.8"/>
      </g>
     </g>
     <g id="text_16">
      <!-- 0.25 -->
      <g transform="translate(60.734375 183.658026) scale(0.1 -0.1)">
       <use xlink:href="#DejaVuSans-30"/>
       <use xlink:href="#DejaVuSans-2e" x="63.623047"/>
       <use xlink:href="#DejaVuSans-32" x="95.410156"/>
       <use xlink:href="#DejaVuSans-35" x="159.033203"/>
      </g>
     </g>
    </g>
    <g id="ytick_7">
     <g id="line2d_16">
      <g>
       <use xlink:href="#m1c6965eb00" x="90" y="141.958569" style="stroke: #000000; stroke-width: 0.8"/>
      </g>
     </g>
     <g id="text_17">
      <!-- 0.30 -->
      <g transform="translate(60.734375 145.757788) scale(0.1 -0.1)">
       <use xlink:href="#DejaVuSans-30"/>
       <use xlink:href="#DejaVuSans-2e" x="63.623047"/>
       <use xlink:href="#DejaVuSans-33" x="95.410156"/>
       <use xlink:href="#DejaVuSans-30" x="159.033203"/>
      </g>
     </g>
    </g>
    <g id="ytick_8">
     <g id="line2d_17">
      <g>
       <use xlink:href="#m1c6965eb00" x="90" y="104.05833" style="stroke: #000000; stroke-width: 0.8"/>
      </g>
     </g>
     <g id="text_18">
      <!-- 0.35 -->
      <g transform="translate(60.734375 107.857549) scale(0.1 -0.1)">
       <use xlink:href="#DejaVuSans-30"/>
       <use xlink:href="#DejaVuSans-2e" x="63.623047"/>
       <use xlink:href="#DejaVuSans-33" x="95.410156"/>
       <use xlink:href="#DejaVuSans-35" x="159.033203"/>
      </g>
     </g>
    </g>
    <g id="ytick_9">
     <g id="line2d_18">
      <g>
       <use xlink:href="#m1c6965eb00" x="90" y="66.158092" style="stroke: #000000; stroke-width: 0.8"/>
      </g>
     </g>
     <g id="text_19">
      <!-- 0.40 -->
      <g transform="translate(60.734375 69.957311) scale(0.1 -0.1)">
       <use xlink:href="#DejaVuSans-30"/>
       <use xlink:href="#DejaVuSans-2e" x="63.623047"/>
       <use xlink:href="#DejaVuSans-34" x="95.410156"/>
       <use xlink:href="#DejaVuSans-30" x="159.033203"/>
      </g>
     </g>
    </g>
    <g id="text_20">
     <!-- Probability Density -->
     <g transform="translate(54.654687 265.186562) rotate(-90) scale(0.1 -0.1)">
      <defs>
       <path id="DejaVuSans-50" d="M 1259 4147 
L 1259 2394 
L 2053 2394 
Q 2494 2394 2734 2622 
Q 2975 2850 2975 3272 
Q 2975 3691 2734 3919 
Q 2494 4147 2053 4147 
L 1259 4147 
z
M 628 4666 
L 2053 4666 
Q 2838 4666 3239 4311 
Q 3641 3956 3641 3272 
Q 3641 2581 3239 2228 
Q 2838 1875 2053 1875 
L 1259 1875 
L 1259 0 
L 628 0 
L 628 4666 
z
" transform="scale(0.015625)"/>
       <path id="DejaVuSans-72" d="M 2631 2963 
Q 2534 3019 2420 3045 
Q 2306 3072 2169 3072 
Q 1681 3072 1420 2755 
Q 1159 2438 1159 1844 
L 1159 0 
L 581 0 
L 581 3500 
L 1159 3500 
L 1159 2956 
Q 1341 3275 1631 3429 
Q 1922 3584 2338 3584 
Q 2397 3584 2469 3576 
Q 2541 3569 2628 3553 
L 2631 2963 
z
" transform="scale(0.015625)"/>
       <path id="DejaVuSans-6f" d="M 1959 3097 
Q 1497 3097 1228 2736 
Q 959 2375 959 1747 
Q 959 1119 1226 758 
Q 1494 397 1959 397 
Q 2419 397 2687 759 
Q 2956 1122 2956 1747 
Q 2956 2369 2687 2733 
Q 2419 3097 1959 3097 
z
M 1959 3584 
Q 2709 3584 3137 3096 
Q 3566 2609 3566 1747 
Q 3566 888 3137 398 
Q 2709 -91 1959 -91 
Q 1206 -91 779 398 
Q 353 888 353 1747 
Q 353 2609 779 3096 
Q 1206 3584 1959 3584 
z
" transform="scale(0.015625)"/>
       <path id="DejaVuSans-62" d="M 3116 1747 
Q 3116 2381 2855 2742 
Q 2594 3103 2138 3103 
Q 1681 3103 1420 2742 
Q 1159 2381 1159 1747 
Q 1159 1113 1420 752 
Q 1681 391 2138 391 
Q 2594 391 2855 752 
Q 3116 1113 3116 1747 
z
M 1159 2969 
Q 1341 3281 1617 3432 
Q 1894 3584 2278 3584 
Q 2916 3584 3314 3078 
Q 3713 2572 3713 1747 
Q 3713 922 3314 415 
Q 2916 -91 2278 -91 
Q 1894 -91 1617 61 
Q 1341 213 1159 525 
L 1159 0 
L 581 0 
L 581 4863 
L 1159 4863 
L 1159 2969 
z
" transform="scale(0.015625)"/>
       <path id="DejaVuSans-6c" d="M 603 4863 
L 1178 4863 
L 1178 0 
L 603 0 
L 603 4863 
z
" transform="scale(0.015625)"/>
       <path id="DejaVuSans-74" d="M 1172 4494 
L 1172 3500 
L 2356 3500 
L 2356 3053 
L 1172 3053 
L 1172 1153 
Q 1172 725 1289 603 
Q 1406 481 1766 481 
L 2356 481 
L 2356 0 
L 1766 0 
Q 1100 0 847 248 
Q 594 497 594 1153 
L 594 3053 
L 172 3053 
L 172 3500 
L 594 3500 
L 594 4494 
L 1172 4494 
z
" transform="scale(0.015625)"/>
       <path id="DejaVuSans-79" d="M 2059 -325 
Q 1816 -950 1584 -1140 
Q 1353 -1331 966 -1331 
L 506 -1331 
L 506 -850 
L 844 -850 
Q 1081 -850 1212 -737 
Q 1344 -625 1503 -206 
L 1606 56 
L 191 3500 
L 800 3500 
L 1894 763 
L 2988 3500 
L 3597 3500 
L 2059 -325 
z
" transform="scale(0.015625)"/>
       <path id="DejaVuSans-20" transform="scale(0.015625)"/>
       <path id="DejaVuSans-44" d="M 1259 4147 
L 1259 519 
L 2022 519 
Q 2988 519 3436 956 
Q 3884 1394 3884 2338 
Q 3884 3275 3436 3711 
Q 2988 4147 2022 4147 
L 1259 4147 
z
M 628 4666 
L 1925 4666 
Q 3281 4666 3915 4102 
Q 4550 3538 4550 2338 
Q 4550 1131 3912 565 
Q 3275 0 1925 0 
L 628 0 
L 628 4666 
z
" transform="scale(0.015625)"/>
       <path id="DejaVuSans-65" d="M 3597 1894 
L 3597 1613 
L 953 1613 
Q 991 1019 1311 708 
Q 1631 397 2203 397 
Q 2534 397 2845 478 
Q 3156 559 3463 722 
L 3463 178 
Q 3153 47 2828 -22 
Q 2503 -91 2169 -91 
Q 1331 -91 842 396 
Q 353 884 353 1716 
Q 353 2575 817 3079 
Q 1281 3584 2069 3584 
Q 2775 3584 3186 3129 
Q 3597 2675 3597 1894 
z
M 3022 2063 
Q 3016 2534 2758 2815 
Q 2500 3097 2075 3097 
Q 1594 3097 1305 2825 
Q 1016 2553 972 2059 
L 3022 2063 
z
" transform="scale(0.015625)"/>
       <path id="DejaVuSans-6e" d="M 3513 2113 
L 3513 0 
L 2938 0 
L 2938 2094 
Q 2938 2591 2744 2837 
Q 2550 3084 2163 3084 
Q 1697 3084 1428 2787 
Q 1159 2491 1159 1978 
L 1159 0 
L 581 0 
L 581 3500 
L 1159 3500 
L 1159 2956 
Q 1366 3272 1645 3428 
Q 1925 3584 2291 3584 
Q 2894 3584 3203 3211 
Q 3513 2838 3513 2113 
z
" transform="scale(0.015625)"/>
      </defs>
      <use xlink:href="#DejaVuSans-50"/>
      <use xlink:href="#DejaVuSans-72" x="58.552734"/>
      <use xlink:href="#DejaVuSans-6f" x="97.416016"/>
      <use xlink:href="#DejaVuSans-62" x="158.597656"/>
      <use xlink:href="#DejaVuSans-61" x="222.074219"/>
      <use xlink:href="#DejaVuSans-62" x="283.353516"/>
      <use xlink:href="#DejaVuSans-69" x="346.830078"/>
      <use xlink:href="#DejaVuSans-6c" x="374.613281"/>
      <use xlink:href="#DejaVuSans-69" x="402.396484"/>
      <use xlink:href="#DejaVuSans-74" x="430.179688"/>
      <use xlink:href="#DejaVuSans-79" x="469.388672"/>
      <use xlink:href="#DejaVuSans-20" x="528.568359"/>
      <use xlink:href="#DejaVuSans-44" x="560.355469"/>
      <use xlink:href="#DejaVuSans-65" x="637.357422"/>
      <use xlink:href="#DejaVuSans-6e" x="698.880859"/>
      <use xlink:href="#DejaVuSans-73" x="762.259766"/>
      <use xlink:href="#DejaVuSans-69" x="814.359375"/>
      <use xlink:href="#DejaVuSans-74" x="842.142578"/>
      <use xlink:href="#DejaVuSans-79" x="881.351562"/>
     </g>
    </g>
   </g>
   <g id="line2d_19">
    <path d="M 115.363636 369.258556 
L 135.167076 369.023033 
L 147.861589 368.668943 
L 158.017199 368.167326 
L 166.141687 367.548213 
L 173.250614 366.782815 
L 179.34398 365.908746 
L 184.929566 364.885796 
L 190.007371 363.732942 
L 194.577396 362.481254 
L 199.14742 360.994707 
L 203.209664 359.448989 
L 207.271908 357.665752 
L 211.334152 355.618182 
L 214.888616 353.587702 
L 218.443079 351.313995 
L 221.997543 348.777294 
L 225.552007 345.957663 
L 229.10647 342.835251 
L 232.660934 339.390557 
L 236.215397 335.604745 
L 239.769861 331.459981 
L 243.324324 326.939792 
L 246.878788 322.029457 
L 250.433251 316.71641 
L 253.987715 310.990653 
L 257.542179 304.845179 
L 261.096642 298.276389 
L 264.651106 291.284497 
L 268.71335 282.781545 
L 272.775594 273.745791 
L 276.837838 264.199508 
L 281.407862 252.888817 
L 286.485667 239.681462 
L 292.071253 224.494171 
L 298.6724 205.880167 
L 321.014742 142.255389 
L 326.092547 128.839462 
L 330.154791 118.698346 
L 333.709255 110.34822 
L 337.263718 102.559612 
L 340.310401 96.381091 
L 343.357084 90.703544 
L 345.895987 86.381634 
L 348.434889 82.453032 
L 350.973792 78.935871 
L 353.512695 75.846534 
L 355.543817 73.692908 
L 357.574939 71.828918 
L 359.606061 70.260226 
L 361.637183 68.991616 
L 363.668305 68.026966 
L 365.699427 67.369235 
L 367.222768 67.078603 
L 368.74611 66.962273 
L 370.269451 67.020444 
L 371.792793 67.253016 
L 373.316134 67.659587 
L 375.347256 68.471089 
L 377.378378 69.588147 
L 379.4095 71.00734 
L 381.440622 72.724334 
L 383.471744 74.733903 
L 385.502867 77.029958 
L 388.041769 80.292273 
L 390.580672 83.976077 
L 393.119574 88.064272 
L 395.658477 92.538061 
L 398.70516 98.386835 
L 401.751843 104.723684 
L 405.306306 112.679667 
L 408.86077 121.177548 
L 412.923014 131.462582 
L 417.493038 143.634745 
L 423.078624 159.157332 
L 431.710893 183.925534 
L 443.389844 217.405141 
L 449.48321 234.231131 
L 455.068796 248.993453 
L 459.638821 260.494095 
L 464.208845 271.406021 
L 468.271089 280.571834 
L 472.333333 289.209607 
L 476.395577 297.303396 
L 479.950041 303.932736 
L 483.504505 310.138548 
L 487.058968 315.923911 
L 490.613432 321.295369 
L 494.167895 326.26252 
L 497.722359 330.837589 
L 501.276822 335.035013 
L 504.831286 338.87104 
L 508.385749 342.363331 
L 511.940213 345.530602 
L 515.494676 348.392276 
L 519.04914 350.968175 
L 522.603604 353.278236 
L 526.158067 355.342264 
L 530.220311 357.424826 
L 534.282555 359.239611 
L 538.344799 360.813599 
L 542.914824 362.328273 
L 547.484848 363.604477 
L 552.562654 364.780715 
L 558.148239 365.825198 
L 564.241605 366.718394 
L 570.842752 367.453206 
L 578.459459 368.068448 
L 587.599509 368.566019 
L 598.77068 368.934109 
L 613.496314 369.181303 
L 622.636364 369.258556 
L 622.636364 369.258556 
" clip-path="url(#p01c728c4e2)" style="fill: none; stroke: #1f77b4; stroke-width: 1.5; stroke-linecap: square"/>
   </g>
   <g id="line2d_20">
    <path d="M 305.590909 384.48 
L 305.590909 51.84 
" clip-path="url(#p01c728c4e2)" style="fill: none; stroke-dasharray: 5.55,2.4; stroke-dashoffset: 0; stroke: #ff0000; stroke-width: 1.5"/>
   </g>
   <g id="line2d_21">
    <path d="M 432.409091 384.48 
L 432.409091 51.84 
" clip-path="url(#p01c728c4e2)" style="fill: none; stroke-dasharray: 5.55,2.4; stroke-dashoffset: 0; stroke: #ff0000; stroke-width: 1.5"/>
   </g>
   <g id="patch_3">
    <path d="M 90 384.48 
L 90 51.84 
" style="fill: none; stroke: #000000; stroke-width: 0.8; stroke-linejoin: miter; stroke-linecap: square"/>
   </g>
   <g id="patch_4">
    <path d="M 648 384.48 
L 648 51.84 
" style="fill: none; stroke: #000000; stroke-width: 0.8; stroke-linejoin: miter; stroke-linecap: square"/>
   </g>
   <g id="patch_5">
    <path d="M 90 384.48 
L 648 384.48 
" style="fill: none; stroke: #000000; stroke-width: 0.8; stroke-linejoin: miter; stroke-linecap: square"/>
   </g>
   <g id="patch_6">
    <path d="M 90 51.84 
L 648 51.84 
" style="fill: none; stroke: #000000; stroke-width: 0.8; stroke-linejoin: miter; stroke-linecap: square"/>
   </g>
   <g id="text_21">
    <!-- μ - σ -->
    <g style="fill: #ff0000" transform="translate(299.25 218.161136) scale(0.1 -0.1)">
     <defs>
      <path id="DejaVuSans-3bc" d="M 544 -1331 
L 544 3500 
L 1119 3500 
L 1119 1325 
Q 1119 872 1334 640 
Q 1550 409 1972 409 
Q 2434 409 2667 671 
Q 2900 934 2900 1459 
L 2900 3500 
L 3475 3500 
L 3475 806 
Q 3475 619 3529 530 
Q 3584 441 3700 441 
Q 3728 441 3778 458 
Q 3828 475 3916 513 
L 3916 50 
Q 3788 -22 3673 -56 
Q 3559 -91 3450 -91 
Q 3234 -91 3106 31 
Q 2978 153 2931 403 
Q 2775 156 2548 32 
Q 2322 -91 2016 -91 
Q 1697 -91 1473 31 
Q 1250 153 1119 397 
L 1119 -1331 
L 544 -1331 
z
" transform="scale(0.015625)"/>
      <path id="DejaVuSans-3c3" d="M 1959 3044 
Q 1484 3044 1228 2700 
Q 959 2341 959 1747 
Q 959 1119 1226 758 
Q 1494 397 1959 397 
Q 2419 397 2687 759 
Q 2956 1122 2956 1747 
Q 2956 2319 2688 2700 
Q 2441 3044 1959 3044 
z
M 1959 3500 
L 3869 3500 
L 3869 2925 
L 3225 2925 
Q 3566 2438 3566 1747 
Q 3566 888 3138 400 
Q 2709 -91 1959 -91 
Q 1206 -91 781 400 
Q 353 888 353 1747 
Q 353 2613 781 3097 
Q 1134 3500 1959 3500 
z
" transform="scale(0.015625)"/>
     </defs>
     <use xlink:href="#DejaVuSans-3bc"/>
     <use xlink:href="#DejaVuSans-20" x="63.623047"/>
     <use xlink:href="#DejaVuSans-2d" x="95.410156"/>
     <use xlink:href="#DejaVuSans-20" x="131.494141"/>
     <use xlink:href="#DejaVuSans-3c3" x="163.28125"/>
    </g>
   </g>
   <g id="text_22">
    <!-- μ + σ -->
    <g style="fill: #ff0000" transform="translate(438.75 218.161136) scale(0.1 -0.1)">
     <defs>
      <path id="DejaVuSans-2b" d="M 2944 4013 
L 2944 2272 
L 4684 2272 
L 4684 1741 
L 2944 1741 
L 2944 0 
L 2419 0 
L 2419 1741 
L 678 1741 
L 678 2272 
L 2419 2272 
L 2419 4013 
L 2944 4013 
z
" transform="scale(0.015625)"/>
     </defs>
     <use xlink:href="#DejaVuSans-3bc"/>
     <use xlink:href="#DejaVuSans-20" x="63.623047"/>
     <use xlink:href="#DejaVuSans-2b" x="95.410156"/>
     <use xlink:href="#DejaVuSans-20" x="179.199219"/>
     <use xlink:href="#DejaVuSans-3c3" x="210.986328"/>
    </g>
   </g>
   <g id="text_23">
    <!-- Gaussian Distribution with Highlighted Portion -->
    <g transform="translate(230.495625 45.84) scale(0.12 -0.12)">
     <defs>
      <path id="DejaVuSans-47" d="M 3809 666 
L 3809 1919 
L 2778 1919 
L 2778 2438 
L 4434 2438 
L 4434 434 
Q 4069 175 3628 42 
Q 3188 -91 2688 -91 
Q 1594 -91 976 548 
Q 359 1188 359 2328 
Q 359 3472 976 4111 
Q 1594 4750 2688 4750 
Q 3144 4750 3555 4637 
Q 3966 4525 4313 4306 
L 4313 3634 
Q 3963 3931 3569 4081 
Q 3175 4231 2741 4231 
Q 1884 4231 1454 3753 
Q 1025 3275 1025 2328 
Q 1025 1384 1454 906 
Q 1884 428 2741 428 
Q 3075 428 3337 486 
Q 3600 544 3809 666 
z
" transform="scale(0.015625)"/>
      <path id="DejaVuSans-75" d="M 544 1381 
L 544 3500 
L 1119 3500 
L 1119 1403 
Q 1119 906 1312 657 
Q 1506 409 1894 409 
Q 2359 409 2629 706 
Q 2900 1003 2900 1516 
L 2900 3500 
L 3475 3500 
L 3475 0 
L 2900 0 
L 2900 538 
Q 2691 219 2414 64 
Q 2138 -91 1772 -91 
Q 1169 -91 856 284 
Q 544 659 544 1381 
z
M 1991 3584 
L 1991 3584 
z
" transform="scale(0.015625)"/>
      <path id="DejaVuSans-77" d="M 269 3500 
L 844 3500 
L 1563 769 
L 2278 3500 
L 2956 3500 
L 3675 769 
L 4391 3500 
L 4966 3500 
L 4050 0 
L 3372 0 
L 2619 2869 
L 1863 0 
L 1184 0 
L 269 3500 
z
" transform="scale(0.015625)"/>
      <path id="DejaVuSans-68" d="M 3513 2113 
L 3513 0 
L 2938 0 
L 2938 2094 
Q 2938 2591 2744 2837 
Q 2550 3084 2163 3084 
Q 1697 3084 1428 2787 
Q 1159 2491 1159 1978 
L 1159 0 
L 581 0 
L 581 4863 
L 1159 4863 
L 1159 2956 
Q 1366 3272 1645 3428 
Q 1925 3584 2291 3584 
Q 2894 3584 3203 3211 
Q 3513 2838 3513 2113 
z
" transform="scale(0.015625)"/>
      <path id="DejaVuSans-48" d="M 628 4666 
L 1259 4666 
L 1259 2753 
L 3553 2753 
L 3553 4666 
L 4184 4666 
L 4184 0 
L 3553 0 
L 3553 2222 
L 1259 2222 
L 1259 0 
L 628 0 
L 628 4666 
z
" transform="scale(0.015625)"/>
      <path id="DejaVuSans-67" d="M 2906 1791 
Q 2906 2416 2648 2759 
Q 2391 3103 1925 3103 
Q 1463 3103 1205 2759 
Q 947 2416 947 1791 
Q 947 1169 1205 825 
Q 1463 481 1925 481 
Q 2391 481 2648 825 
Q 2906 1169 2906 1791 
z
M 3481 434 
Q 3481 -459 3084 -895 
Q 2688 -1331 1869 -1331 
Q 1566 -1331 1297 -1286 
Q 1028 -1241 775 -1147 
L 775 -588 
Q 1028 -725 1275 -790 
Q 1522 -856 1778 -856 
Q 2344 -856 2625 -561 
Q 2906 -266 2906 331 
L 2906 616 
Q 2728 306 2450 153 
Q 2172 0 1784 0 
Q 1141 0 747 490 
Q 353 981 353 1791 
Q 353 2603 747 3093 
Q 1141 3584 1784 3584 
Q 2172 3584 2450 3431 
Q 2728 3278 2906 2969 
L 2906 3500 
L 3481 3500 
L 3481 434 
z
" transform="scale(0.015625)"/>
      <path id="DejaVuSans-64" d="M 2906 2969 
L 2906 4863 
L 3481 4863 
L 3481 0 
L 2906 0 
L 2906 525 
Q 2725 213 2448 61 
Q 2172 -91 1784 -91 
Q 1150 -91 751 415 
Q 353 922 353 1747 
Q 353 2572 751 3078 
Q 1150 3584 1784 3584 
Q 2172 3584 2448 3432 
Q 2725 3281 2906 2969 
z
M 947 1747 
Q 947 1113 1208 752 
Q 1469 391 1925 391 
Q 2381 391 2643 752 
Q 2906 1113 2906 1747 
Q 2906 2381 2643 2742 
Q 2381 3103 1925 3103 
Q 1469 3103 1208 2742 
Q 947 2381 947 1747 
z
" transform="scale(0.015625)"/>
     </defs>
     <use xlink:href="#DejaVuSans-47"/>
     <use xlink:href="#DejaVuSans-61" x="77.490234"/>
     <use xlink:href="#DejaVuSans-75" x="138.769531"/>
     <use xlink:href="#DejaVuSans-73" x="202.148438"/>
     <use xlink:href="#DejaVuSans-73" x="254.248047"/>
     <use xlink:href="#DejaVuSans-69" x="306.347656"/>
     <use xlink:href="#DejaVuSans-61" x="334.130859"/>
     <use xlink:href="#DejaVuSans-6e" x="395.410156"/>
     <use xlink:href="#DejaVuSans-20" x="458.789062"/>
     <use xlink:href="#DejaVuSans-44" x="490.576172"/>
     <use xlink:href="#DejaVuSans-69" x="567.578125"/>
     <use xlink:href="#DejaVuSans-73" x="595.361328"/>
     <use xlink:href="#DejaVuSans-74" x="647.460938"/>
     <use xlink:href="#DejaVuSans-72" x="686.669922"/>
     <use xlink:href="#DejaVuSans-69" x="727.783203"/>
     <use xlink:href="#DejaVuSans-62" x="755.566406"/>
     <use xlink:href="#DejaVuSans-75" x="819.042969"/>
     <use xlink:href="#DejaVuSans-74" x="882.421875"/>
     <use xlink:href="#DejaVuSans-69" x="921.630859"/>
     <use xlink:href="#DejaVuSans-6f" x="949.414062"/>
     <use xlink:href="#DejaVuSans-6e" x="1010.595703"/>
     <use xlink:href="#DejaVuSans-20" x="1073.974609"/>
     <use xlink:href="#DejaVuSans-77" x="1105.761719"/>
     <use xlink:href="#DejaVuSans-69" x="1187.548828"/>
     <use xlink:href="#DejaVuSans-74" x="1215.332031"/>
     <use xlink:href="#DejaVuSans-68" x="1254.541016"/>
     <use xlink:href="#DejaVuSans-20" x="1317.919922"/>
     <use xlink:href="#DejaVuSans-48" x="1349.707031"/>
     <use xlink:href="#DejaVuSans-69" x="1424.902344"/>
     <use xlink:href="#DejaVuSans-67" x="1452.685547"/>
     <use xlink:href="#DejaVuSans-68" x="1516.162109"/>
     <use xlink:href="#DejaVuSans-6c" x="1579.541016"/>
     <use xlink:href="#DejaVuSans-69" x="1607.324219"/>
     <use xlink:href="#DejaVuSans-67" x="1635.107422"/>
     <use xlink:href="#DejaVuSans-68" x="1698.583984"/>
     <use xlink:href="#DejaVuSans-74" x="1761.962891"/>
     <use xlink:href="#DejaVuSans-65" x="1801.171875"/>
     <use xlink:href="#DejaVuSans-64" x="1862.695312"/>
     <use xlink:href="#DejaVuSans-20" x="1926.171875"/>
     <use xlink:href="#DejaVuSans-50" x="1957.958984"/>
     <use xlink:href="#DejaVuSans-6f" x="2014.636719"/>
     <use xlink:href="#DejaVuSans-72" x="2075.818359"/>
     <use xlink:href="#DejaVuSans-74" x="2116.931641"/>
     <use xlink:href="#DejaVuSans-69" x="2156.140625"/>
     <use xlink:href="#DejaVuSans-6f" x="2183.923828"/>
     <use xlink:href="#DejaVuSans-6e" x="2245.105469"/>
    </g>
   </g>
   <g id="legend_1">
    <g id="patch_7">
     <path d="M 501.607813 89.19625 
L 641 89.19625 
Q 643 89.19625 643 87.19625 
L 643 58.84 
Q 643 56.84 641 56.84 
L 501.607813 56.84 
Q 499.607813 56.84 499.607813 58.84 
L 499.607813 87.19625 
Q 499.607813 89.19625 501.607813 89.19625 
z
" style="fill: #ffffff; opacity: 0.8; stroke: #cccccc; stroke-linejoin: miter"/>
    </g>
    <g id="line2d_22">
     <path d="M 503.607813 64.938437 
L 513.607813 64.938437 
L 523.607813 64.938437 
" style="fill: none; stroke: #1f77b4; stroke-width: 1.5; stroke-linecap: square"/>
    </g>
    <g id="text_24">
     <!-- Gaussian Distribution -->
     <g transform="translate(531.607813 68.438437) scale(0.1 -0.1)">
      <use xlink:href="#DejaVuSans-47"/>
      <use xlink:href="#DejaVuSans-61" x="77.490234"/>
      <use xlink:href="#DejaVuSans-75" x="138.769531"/>
      <use xlink:href="#DejaVuSans-73" x="202.148438"/>
      <use xlink:href="#DejaVuSans-73" x="254.248047"/>
      <use xlink:href="#DejaVuSans-69" x="306.347656"/>
      <use xlink:href="#DejaVuSans-61" x="334.130859"/>
      <use xlink:href="#DejaVuSans-6e" x="395.410156"/>
      <use xlink:href="#DejaVuSans-20" x="458.789062"/>
      <use xlink:href="#DejaVuSans-44" x="490.576172"/>
      <use xlink:href="#DejaVuSans-69" x="567.578125"/>
      <use xlink:href="#DejaVuSans-73" x="595.361328"/>
      <use xlink:href="#DejaVuSans-74" x="647.460938"/>
      <use xlink:href="#DejaVuSans-72" x="686.669922"/>
      <use xlink:href="#DejaVuSans-69" x="727.783203"/>
      <use xlink:href="#DejaVuSans-62" x="755.566406"/>
      <use xlink:href="#DejaVuSans-75" x="819.042969"/>
      <use xlink:href="#DejaVuSans-74" x="882.421875"/>
      <use xlink:href="#DejaVuSans-69" x="921.630859"/>
      <use xlink:href="#DejaVuSans-6f" x="949.414062"/>
      <use xlink:href="#DejaVuSans-6e" x="1010.595703"/>
     </g>
    </g>
    <g id="patch_8">
     <path d="M 503.607813 83.116562 
L 523.607813 83.116562 
L 523.607813 76.116562 
L 503.607813 76.116562 
z
" style="fill: #0000ff; fill-opacity: 0.3; stroke: #0000ff; stroke-opacity: 0.3; stroke-linejoin: miter"/>
    </g>
    <g id="text_25">
     <!-- Highlighted Portion -->
     <g transform="translate(531.607813 83.116562) scale(0.1 -0.1)">
      <use xlink:href="#DejaVuSans-48"/>
      <use xlink:href="#DejaVuSans-69" x="75.195312"/>
      <use xlink:href="#DejaVuSans-67" x="102.978516"/>
      <use xlink:href="#DejaVuSans-68" x="166.455078"/>
      <use xlink:href="#DejaVuSans-6c" x="229.833984"/>
      <use xlink:href="#DejaVuSans-69" x="257.617188"/>
      <use xlink:href="#DejaVuSans-67" x="285.400391"/>
      <use xlink:href="#DejaVuSans-68" x="348.876953"/>
      <use xlink:href="#DejaVuSans-74" x="412.255859"/>
      <use xlink:href="#DejaVuSans-65" x="451.464844"/>
      <use xlink:href="#DejaVuSans-64" x="512.988281"/>
      <use xlink:href="#DejaVuSans-20" x="576.464844"/>
      <use xlink:href="#DejaVuSans-50" x="608.251953"/>
      <use xlink:href="#DejaVuSans-6f" x="664.929688"/>
      <use xlink:href="#DejaVuSans-72" x="726.111328"/>
      <use xlink:href="#DejaVuSans-74" x="767.224609"/>
      <use xlink:href="#DejaVuSans-69" x="806.433594"/>
      <use xlink:href="#DejaVuSans-6f" x="834.216797"/>
      <use xlink:href="#DejaVuSans-6e" x="895.398438"/>
     </g>
    </g>
   </g>
  </g>
 </g>
 <defs>
  <clipPath id="p01c728c4e2">
   <rect x="90" y="51.84" width="558" height="332.64"/>
  </clipPath>
 </defs>
</svg>
